<svg width="103" height="40" viewBox="0 0 103 40" fill="none" xmlns="http://www.w3.org/2000/svg">
<rect x="0.5" y="1" width="38" height="38" rx="19" stroke="#B4E705"/>
<path d="M32.5356 6.96435L36.4113 7.73903C36.6194 7.78066 36.7906 7.93328 36.8507 8.1391C36.8811 8.23907 36.8838 8.34541 36.8585 8.4468C36.8333 8.54819 36.781 8.64084 36.7073 8.71491L33.5322 11.8923C33.1518 12.2706 32.6373 12.4834 32.1008 12.4843H29.4669L22.8531 19.1003C22.9793 19.5768 23.0025 20.0746 22.9212 20.5607C22.8399 21.0468 22.6559 21.51 22.3815 21.9194C22.1072 22.3288 21.7487 22.6751 21.33 22.9351C20.9114 23.1951 20.4421 23.363 19.9535 23.4274C19.4648 23.4918 18.9681 23.4514 18.4963 23.3088C18.0246 23.1662 17.5886 22.9247 17.2175 22.6004C16.8464 22.2761 16.5486 21.8764 16.3441 21.428C16.1395 20.9796 16.0329 20.4928 16.0313 19.9999C16.0311 19.4676 16.1535 18.9425 16.3889 18.4651C16.6243 17.9877 16.9665 17.5709 17.3888 17.2469C17.8111 16.9229 18.3024 16.7005 18.8245 16.5968C19.3465 16.4932 19.8855 16.5111 20.3996 16.6491L27.0156 10.0307V7.40141C27.0156 6.86491 27.2284 6.34922 27.6076 5.96997L30.785 2.7926C30.8591 2.71889 30.9517 2.66664 31.0531 2.6414C31.1545 2.61615 31.2608 2.61885 31.3608 2.64922C31.5666 2.70935 31.7192 2.88047 31.7609 3.0886L32.5356 6.96435Z" fill="#B6EC0E"/>
<path d="M5.42222 19.8065C5.4246 21.7905 5.85245 23.751 6.67691 25.5556C7.50137 27.3602 8.70327 28.967 10.2015 30.2677C11.6998 31.5683 13.4596 32.5325 15.3621 33.0952C17.2647 33.6578 19.2658 33.806 21.2305 33.5295C23.1952 33.2531 25.0777 32.5585 26.7511 31.4926C28.4246 30.4268 29.8499 29.0144 30.9311 27.3508C32.0123 25.6873 32.7241 23.8112 33.0186 21.8491C33.313 19.887 33.1833 17.8846 32.638 15.977C32.5615 15.7541 32.5311 15.518 32.5487 15.283C32.5663 15.048 32.6316 14.8191 32.7405 14.6101C32.8494 14.4011 32.9998 14.2165 33.1823 14.0675C33.3649 13.9185 33.5758 13.8082 33.8024 13.7433C34.0289 13.6784 34.2663 13.6603 34.5 13.6901C34.7338 13.7199 34.9591 13.7969 35.1621 13.9165C35.3651 14.0362 35.5417 14.1958 35.681 14.3859C35.8204 14.5759 35.9196 14.7923 35.9727 15.0219C37.0284 18.7162 36.8278 22.6564 35.4025 26.2244C33.9772 29.7925 31.4077 32.7864 28.0972 34.7365C24.7867 36.6866 20.9225 37.4825 17.1109 36.9995C13.2992 36.5164 9.75571 34.7816 7.03635 32.0674C4.31995 29.3487 2.58334 25.8049 2.09917 21.9923C1.615 18.1797 2.41068 14.3143 4.3613 11.003C6.31192 7.6916 9.307 5.12179 12.8763 3.69701C16.4456 2.27223 20.3871 2.07315 24.0818 3.13105C24.5217 3.25965 24.8929 3.55717 25.1141 3.95858C25.3353 4.35999 25.3887 4.83266 25.2625 5.27329C25.1363 5.71392 24.8408 6.08668 24.4406 6.31011C24.0404 6.53354 23.568 6.58946 23.1267 6.46567C21.0607 5.8724 18.885 5.76727 16.7714 6.15857C14.6578 6.54988 12.664 7.42692 10.9472 8.72052C9.2305 10.0141 7.83781 11.6889 6.879 13.6128C5.92019 15.5366 5.42148 17.6569 5.42222 19.8065Z" fill="#EB5757"/>
<path d="M12.5626 19.9999C12.5628 21.2639 12.908 22.5038 13.5611 23.586C14.2142 24.6682 15.1503 25.5516 16.2686 26.1408C17.3868 26.73 18.6447 27.0028 19.9066 26.9296C21.1685 26.8565 22.3864 26.4402 23.4291 25.7256C24.4715 25.0093 25.2983 24.0216 25.82 22.8694C26.3417 21.7171 26.5385 20.4442 26.3891 19.1882C26.3486 18.8834 26.3902 18.5734 26.5094 18.29C26.6287 18.0066 26.8213 17.7601 27.0674 17.5759C27.3136 17.3917 27.6044 17.2764 27.9099 17.242C28.2154 17.2075 28.5246 17.2551 28.8056 17.3798C29.0866 17.503 29.3298 17.6984 29.5106 17.9462C29.6914 18.194 29.8032 18.4853 29.8347 18.7905C30.086 20.9367 29.6629 23.1079 28.6241 25.0028C27.5854 26.8976 25.9825 28.4221 24.0381 29.3647C22.0936 30.3072 19.9039 30.621 17.7729 30.2626C15.642 29.9042 13.6754 28.8912 12.1463 27.3644C10.6172 25.8376 9.60125 23.8726 9.23957 21.7422C8.8779 19.6118 9.18841 17.4216 10.128 15.4757C11.0676 13.5298 12.5896 11.9246 14.4829 10.883C16.3762 9.8414 18.5468 9.415 20.6934 9.66301C20.9232 9.68434 21.1465 9.75134 21.3501 9.86008C21.5538 9.96881 21.7336 10.1171 21.8792 10.2963C22.0248 10.4754 22.1331 10.6818 22.1979 10.9034C22.2626 11.125 22.2825 11.3572 22.2563 11.5866C22.2302 11.8159 22.1585 12.0377 22.0455 12.239C21.9325 12.4403 21.7804 12.617 21.5982 12.7588C21.4161 12.9005 21.2074 13.0045 20.9845 13.0646C20.7616 13.1247 20.529 13.1396 20.3003 13.1086C19.3282 12.9958 18.3433 13.0898 17.4102 13.3846C16.4771 13.6794 15.6169 14.1683 14.8861 14.8191C14.1553 15.47 13.5705 16.268 13.1701 17.1609C12.7696 18.0538 12.5626 19.0213 12.5626 19.9999Z" fill="#EB5757"/>
<path d="M55.4148 12.5H54.3068L57.5114 3.77273H58.6023L61.8068 12.5H60.6989L58.0909 5.15341H58.0227L55.4148 12.5ZM55.8239 9.09091H60.2898V10.0284H55.8239V9.09091ZM67.0818 5.95455L64.6613 12.5H63.6386L61.2182 5.95455H62.3091L64.1159 11.1705H64.1841L65.9909 5.95455H67.0818ZM70.3369 15.0909C69.8511 15.0909 69.4335 15.0284 69.084 14.9034C68.7346 14.7812 68.4434 14.6193 68.2105 14.4176C67.9803 14.2188 67.7971 14.0057 67.6607 13.7784L68.4619 13.2159C68.5528 13.3352 68.6678 13.4716 68.807 13.625C68.9463 13.7812 69.1366 13.9162 69.3781 14.0298C69.6224 14.1463 69.942 14.2045 70.3369 14.2045C70.8653 14.2045 71.3014 14.0767 71.6451 13.821C71.9889 13.5653 72.1607 13.1648 72.1607 12.6193V11.2898H72.0755C72.0016 11.4091 71.8965 11.5568 71.7602 11.733C71.6266 11.9062 71.4335 12.0611 71.1806 12.1974C70.9306 12.331 70.5926 12.3977 70.1664 12.3977C69.638 12.3977 69.1636 12.2727 68.7431 12.0227C68.3255 11.7727 67.9945 11.4091 67.7502 10.9318C67.5087 10.4545 67.388 9.875 67.388 9.19318C67.388 8.52273 67.5059 7.93892 67.7417 7.44176C67.9775 6.94176 68.3056 6.5554 68.7261 6.28267C69.1465 6.0071 69.6323 5.86932 70.1835 5.86932C70.6096 5.86932 70.9477 5.94034 71.1977 6.08239C71.4505 6.22159 71.6437 6.38068 71.7772 6.55966C71.9136 6.7358 72.0187 6.88068 72.0926 6.99432H72.1948V5.95455H73.1664V12.6875C73.1664 13.25 73.0386 13.7074 72.7829 14.0597C72.5301 14.4148 72.1891 14.6747 71.7602 14.8395C71.334 15.0071 70.8596 15.0909 70.3369 15.0909ZM70.3028 11.4943C70.7062 11.4943 71.0471 11.402 71.3255 11.2173C71.6039 11.0327 71.8156 10.767 71.9605 10.4205C72.1053 10.0739 72.1778 9.65909 72.1778 9.17614C72.1778 8.70455 72.1068 8.28835 71.9647 7.92756C71.8227 7.56676 71.6124 7.28409 71.334 7.07955C71.0556 6.875 70.7119 6.77273 70.3028 6.77273C69.8766 6.77273 69.5215 6.88068 69.2374 7.09659C68.9562 7.3125 68.7445 7.60227 68.6025 7.96591C68.4633 8.32955 68.3937 8.73295 68.3937 9.17614C68.3937 9.63068 68.4647 10.0327 68.6068 10.3821C68.7516 10.7287 68.9647 11.0014 69.246 11.2003C69.5301 11.3963 69.8823 11.4943 70.3028 11.4943ZM75.2603 12.5682C75.0501 12.5682 74.8697 12.4929 74.7191 12.3423C74.5685 12.1918 74.4932 12.0114 74.4932 11.8011C74.4932 11.5909 74.5685 11.4105 74.7191 11.2599C74.8697 11.1094 75.0501 11.0341 75.2603 11.0341C75.4705 11.0341 75.6509 11.1094 75.8015 11.2599C75.952 11.4105 76.0273 11.5909 76.0273 11.8011C76.0273 11.9403 75.9918 12.0682 75.9208 12.1847C75.8526 12.3011 75.7603 12.3949 75.6438 12.4659C75.5302 12.5341 75.4023 12.5682 75.2603 12.5682ZM80.7413 12.5H79.6334L82.8379 3.77273H83.9288L87.1334 12.5H86.0254L83.4175 5.15341H83.3493L80.7413 12.5ZM81.1504 9.09091H85.6163V10.0284H81.1504V9.09091ZM90.5355 12.6364C89.9218 12.6364 89.3934 12.4915 88.9503 12.2017C88.5071 11.9119 88.1662 11.5128 87.9275 11.0043C87.6889 10.4957 87.5696 9.91477 87.5696 9.26136C87.5696 8.59659 87.6917 8.00994 87.9361 7.50142C88.1832 6.99006 88.527 6.59091 88.9673 6.30398C89.4105 6.0142 89.9275 5.86932 90.5184 5.86932C90.9787 5.86932 91.3934 5.95455 91.7628 6.125C92.1321 6.29545 92.4346 6.53409 92.6704 6.84091C92.9062 7.14773 93.0525 7.50568 93.1093 7.91477H92.1037C92.027 7.61648 91.8565 7.35227 91.5923 7.12216C91.3309 6.8892 90.9787 6.77273 90.5355 6.77273C90.1434 6.77273 89.7997 6.875 89.5042 7.07955C89.2116 7.28125 88.9829 7.56676 88.8182 7.93608C88.6562 8.30256 88.5753 8.73295 88.5753 9.22727C88.5753 9.73295 88.6548 10.1733 88.8139 10.5483C88.9758 10.9233 89.2031 11.2145 89.4957 11.4219C89.7912 11.6293 90.1378 11.733 90.5355 11.733C90.7968 11.733 91.0341 11.6875 91.2471 11.5966C91.4602 11.5057 91.6406 11.375 91.7883 11.2045C91.9361 11.0341 92.0412 10.8295 92.1037 10.5909H93.1093C93.0525 10.9773 92.9119 11.3253 92.6875 11.6349C92.4659 11.9418 92.1718 12.1861 91.8054 12.3679C91.4417 12.5469 91.0184 12.6364 90.5355 12.6364ZM96.7586 12.6364C96.145 12.6364 95.6166 12.4915 95.1734 12.2017C94.7302 11.9119 94.3893 11.5128 94.1507 11.0043C93.912 10.4957 93.7927 9.91477 93.7927 9.26136C93.7927 8.59659 93.9149 8.00994 94.1592 7.50142C94.4063 6.99006 94.7501 6.59091 95.1904 6.30398C95.6336 6.0142 96.1507 5.86932 96.7416 5.86932C97.2018 5.86932 97.6166 5.95455 97.9859 6.125C98.3552 6.29545 98.6578 6.53409 98.8936 6.84091C99.1293 7.14773 99.2757 7.50568 99.3325 7.91477H98.3268C98.2501 7.61648 98.0796 7.35227 97.8154 7.12216C97.5541 6.8892 97.2018 6.77273 96.7586 6.77273C96.3666 6.77273 96.0228 6.875 95.7274 7.07955C95.4347 7.28125 95.2061 7.56676 95.0413 7.93608C94.8793 8.30256 94.7984 8.73295 94.7984 9.22727C94.7984 9.73295 94.8779 10.1733 95.037 10.5483C95.1989 10.9233 95.4262 11.2145 95.7188 11.4219C96.0143 11.6293 96.3609 11.733 96.7586 11.733C97.02 11.733 97.2572 11.6875 97.4703 11.5966C97.6833 11.5057 97.8637 11.375 98.0114 11.2045C98.1592 11.0341 98.2643 10.8295 98.3268 10.5909H99.3325C99.2757 10.9773 99.135 11.3253 98.9106 11.6349C98.689 11.9418 98.395 12.1861 98.0285 12.3679C97.6649 12.5469 97.2416 12.6364 96.7586 12.6364ZM101.056 12.5682C100.845 12.5682 100.665 12.4929 100.514 12.3423C100.364 12.1918 100.289 12.0114 100.289 11.8011C100.289 11.5909 100.364 11.4105 100.514 11.2599C100.665 11.1094 100.845 11.0341 101.056 11.0341C101.266 11.0341 101.446 11.1094 101.597 11.2599C101.747 11.4105 101.823 11.5909 101.823 11.8011C101.823 11.9403 101.787 12.0682 101.716 12.1847C101.648 12.3011 101.556 12.3949 101.439 12.4659C101.325 12.5341 101.198 12.5682 101.056 12.5682Z" fill="#F7F7F7"/>
<path d="M58.9091 23.7045C59.3864 23.7083 59.8636 23.7992 60.3409 23.9773C60.8182 24.1553 61.2538 24.4508 61.6477 24.8636C62.0417 25.2727 62.358 25.8314 62.5966 26.5398C62.8352 27.2481 62.9545 28.1364 62.9545 29.2045C62.9545 30.2386 62.8561 31.1572 62.6591 31.9602C62.4659 32.7595 62.1856 33.4337 61.8182 33.983C61.4545 34.5322 61.0114 34.9489 60.4886 35.233C59.9697 35.517 59.3826 35.6591 58.7273 35.6591C58.0758 35.6591 57.4943 35.5303 56.983 35.2727C56.4754 35.0114 56.0587 34.6496 55.733 34.1875C55.411 33.7216 55.2045 33.1818 55.1136 32.5682H56.5C56.625 33.1023 56.8731 33.5436 57.2443 33.892C57.6193 34.2367 58.1136 34.4091 58.7273 34.4091C59.625 34.4091 60.3333 34.017 60.8523 33.233C61.375 32.4489 61.6364 31.3409 61.6364 29.9091H61.5455C61.3333 30.2273 61.0814 30.5019 60.7898 30.733C60.4981 30.964 60.1742 31.142 59.8182 31.267C59.4621 31.392 59.0833 31.4545 58.6818 31.4545C58.0152 31.4545 57.4034 31.2898 56.8466 30.9602C56.2936 30.6269 55.8504 30.1705 55.517 29.5909C55.1875 29.0076 55.0227 28.3409 55.0227 27.5909C55.0227 26.8788 55.1818 26.2273 55.5 25.6364C55.822 25.0417 56.2727 24.5682 56.8523 24.2159C57.4356 23.8636 58.1212 23.6932 58.9091 23.7045ZM58.9091 24.9545C58.4318 24.9545 58.0019 25.0739 57.6193 25.3125C57.2405 25.5473 56.9394 25.8655 56.7159 26.267C56.4962 26.6648 56.3864 27.1061 56.3864 27.5909C56.3864 28.0758 56.4924 28.517 56.7045 28.9148C56.9205 29.3087 57.214 29.6231 57.5852 29.858C57.9602 30.089 58.3864 30.2045 58.8636 30.2045C59.2235 30.2045 59.5587 30.1345 59.8693 29.9943C60.1799 29.8504 60.4508 29.6553 60.6818 29.4091C60.9167 29.1591 61.1004 28.8769 61.233 28.5625C61.3655 28.2443 61.4318 27.9129 61.4318 27.5682C61.4318 27.1136 61.322 26.6875 61.1023 26.2898C60.8864 25.892 60.5871 25.5701 60.2045 25.3239C59.8258 25.0777 59.3939 24.9545 58.9091 24.9545ZM69.0526 35.6591C68.5753 35.6515 68.098 35.5606 67.6207 35.3864C67.1435 35.2121 66.7079 34.9186 66.3139 34.5057C65.92 34.089 65.6037 33.5265 65.3651 32.8182C65.1264 32.1061 65.0071 31.2121 65.0071 30.1364C65.0071 29.1061 65.1037 28.1932 65.2969 27.3977C65.4901 26.5985 65.7704 25.9261 66.1378 25.3807C66.5052 24.8314 66.9484 24.4148 67.4673 24.1307C67.9901 23.8466 68.5791 23.7045 69.2344 23.7045C69.8859 23.7045 70.4654 23.8352 70.973 24.0966C71.4844 24.3542 71.901 24.714 72.223 25.1761C72.545 25.6383 72.7533 26.1705 72.848 26.7727H71.4616C71.3329 26.25 71.0829 25.8163 70.7116 25.4716C70.3404 25.1269 69.848 24.9545 69.2344 24.9545C68.3329 24.9545 67.6226 25.3466 67.1037 26.1307C66.5885 26.9148 66.3291 28.0152 66.3253 29.4318H66.4162C66.6283 29.1098 66.8802 28.8352 67.1719 28.608C67.4673 28.3769 67.7931 28.1989 68.1491 28.0739C68.5052 27.9489 68.8821 27.8864 69.2798 27.8864C69.9465 27.8864 70.5563 28.053 71.1094 28.3864C71.6624 28.7159 72.1056 29.1723 72.4389 29.7557C72.7723 30.3352 72.9389 31 72.9389 31.75C72.9389 32.4697 72.7779 33.1288 72.456 33.7273C72.134 34.322 71.6813 34.7955 71.098 35.1477C70.5185 35.4962 69.8366 35.6667 69.0526 35.6591ZM69.0526 34.4091C69.5298 34.4091 69.9579 34.2898 70.3366 34.0511C70.7192 33.8125 71.0204 33.4924 71.2401 33.0909C71.4635 32.6894 71.5753 32.2424 71.5753 31.75C71.5753 31.2689 71.4673 30.8314 71.2514 30.4375C71.0393 30.0398 70.7457 29.7235 70.3707 29.4886C69.9995 29.2538 69.5753 29.1364 69.098 29.1364C68.7382 29.1364 68.4029 29.2083 68.0923 29.3523C67.7817 29.4924 67.509 29.6856 67.2741 29.9318C67.0431 30.178 66.8613 30.4602 66.7287 30.7784C66.5961 31.0928 66.5298 31.4242 66.5298 31.7727C66.5298 32.2348 66.6378 32.6667 66.8537 33.0682C67.0734 33.4697 67.3726 33.7936 67.7514 34.0398C68.134 34.286 68.5677 34.4091 69.0526 34.4091ZM81.1051 33.3182V32.7045C81.1051 32.2803 81.1922 31.892 81.3665 31.5398C81.5445 31.1837 81.8021 30.8996 82.1392 30.6875C82.4801 30.4716 82.893 30.3636 83.3778 30.3636C83.8703 30.3636 84.2831 30.4716 84.6165 30.6875C84.9498 30.8996 85.2017 31.1837 85.3722 31.5398C85.5426 31.892 85.6278 32.2803 85.6278 32.7045V33.3182C85.6278 33.7424 85.5407 34.1326 85.3665 34.4886C85.196 34.8409 84.9422 35.125 84.6051 35.3409C84.2718 35.553 83.8627 35.6591 83.3778 35.6591C82.8854 35.6591 82.4706 35.553 82.1335 35.3409C81.7964 35.125 81.5407 34.8409 81.3665 34.4886C81.1922 34.1326 81.1051 33.7424 81.1051 33.3182ZM82.2642 32.7045V33.3182C82.2642 33.6705 82.3475 33.9867 82.5142 34.267C82.6809 34.5436 82.9688 34.6818 83.3778 34.6818C83.7756 34.6818 84.0559 34.5436 84.2188 34.267C84.3854 33.9867 84.4688 33.6705 84.4688 33.3182V32.7045C84.4688 32.3523 84.3892 32.0379 84.2301 31.7614C84.071 31.4811 83.7869 31.3409 83.3778 31.3409C82.9801 31.3409 82.6941 31.4811 82.5199 31.7614C82.3494 32.0379 82.2642 32.3523 82.2642 32.7045ZM75.3097 26.6591V26.0455C75.3097 25.6212 75.3968 25.233 75.571 24.8807C75.7491 24.5246 76.0066 24.2405 76.3438 24.0284C76.6847 23.8125 77.0975 23.7045 77.5824 23.7045C78.0748 23.7045 78.4877 23.8125 78.821 24.0284C79.1544 24.2405 79.4063 24.5246 79.5767 24.8807C79.7472 25.233 79.8324 25.6212 79.8324 26.0455V26.6591C79.8324 27.0833 79.7453 27.4735 79.571 27.8295C79.4006 28.1818 79.1468 28.4659 78.8097 28.6818C78.4763 28.8939 78.0672 29 77.5824 29C77.09 29 76.6752 28.8939 76.3381 28.6818C76.0009 28.4659 75.7453 28.1818 75.571 27.8295C75.3968 27.4735 75.3097 27.0833 75.3097 26.6591ZM76.4688 26.0455V26.6591C76.4688 27.0114 76.5521 27.3277 76.7188 27.608C76.8854 27.8845 77.1733 28.0227 77.5824 28.0227C77.9801 28.0227 78.2604 27.8845 78.4233 27.608C78.59 27.3277 78.6733 27.0114 78.6733 26.6591V26.0455C78.6733 25.6932 78.5938 25.3788 78.4347 25.1023C78.2756 24.822 77.9915 24.6818 77.5824 24.6818C77.1847 24.6818 76.8987 24.822 76.7244 25.1023C76.554 25.3788 76.4688 25.6932 76.4688 26.0455ZM75.7415 35.5L83.7415 23.8636H85.0369L77.0369 35.5H75.7415Z" fill="#F7F7F7"/>
</svg>
