<svg width="114" height="42" viewBox="0 0 114 42" fill="none" xmlns="http://www.w3.org/2000/svg">
<rect x="0.5" y="1" width="37" height="38" rx="18.5" stroke="#B5E807"/>
<path fill-rule="evenodd" clip-rule="evenodd" d="M13.1366 4.725C13.3999 4.13187 13.9865 3.75 14.6365 3.75H27.5991C28.8179 3.75 29.6125 5.03375 29.0665 6.12575L25.3794 13.5H30.8361C32.2986 13.5 33.0299 15.268 31.9964 16.3015L12.5727 35.7251C11.3475 36.9504 9.30649 35.6894 9.85574 34.0465L13.9962 21.625H8.14949C7.87607 21.625 7.60699 21.5567 7.36669 21.4263C7.12638 21.2958 6.92246 21.1075 6.77346 20.8782C6.62445 20.649 6.53507 20.3861 6.51344 20.1136C6.49182 19.841 6.53862 19.5674 6.64961 19.3175L13.1366 4.725Z" fill="#B6EC0E"/>
<path d="M55.4148 12.5H54.3068L57.5114 3.77273H58.6023L61.8068 12.5H60.6989L58.0909 5.15341H58.0227L55.4148 12.5ZM55.8239 9.09091H60.2898V10.0284H55.8239V9.09091ZM67.0818 5.95455L64.6613 12.5H63.6386L61.2182 5.95455H62.3091L64.1159 11.1705H64.1841L65.9909 5.95455H67.0818ZM70.3369 15.0909C69.8511 15.0909 69.4335 15.0284 69.084 14.9034C68.7346 14.7812 68.4434 14.6193 68.2105 14.4176C67.9803 14.2188 67.7971 14.0057 67.6607 13.7784L68.4619 13.2159C68.5528 13.3352 68.6678 13.4716 68.807 13.625C68.9463 13.7812 69.1366 13.9162 69.3781 14.0298C69.6224 14.1463 69.942 14.2045 70.3369 14.2045C70.8653 14.2045 71.3014 14.0767 71.6451 13.821C71.9889 13.5653 72.1607 13.1648 72.1607 12.6193V11.2898H72.0755C72.0016 11.4091 71.8965 11.5568 71.7602 11.733C71.6266 11.9062 71.4335 12.0611 71.1806 12.1974C70.9306 12.331 70.5926 12.3977 70.1664 12.3977C69.638 12.3977 69.1636 12.2727 68.7431 12.0227C68.3255 11.7727 67.9945 11.4091 67.7502 10.9318C67.5087 10.4545 67.388 9.875 67.388 9.19318C67.388 8.52273 67.5059 7.93892 67.7417 7.44176C67.9775 6.94176 68.3056 6.5554 68.7261 6.28267C69.1465 6.0071 69.6323 5.86932 70.1835 5.86932C70.6096 5.86932 70.9477 5.94034 71.1977 6.08239C71.4505 6.22159 71.6437 6.38068 71.7772 6.55966C71.9136 6.7358 72.0187 6.88068 72.0926 6.99432H72.1948V5.95455H73.1664V12.6875C73.1664 13.25 73.0386 13.7074 72.7829 14.0597C72.5301 14.4148 72.1891 14.6747 71.7602 14.8395C71.334 15.0071 70.8596 15.0909 70.3369 15.0909ZM70.3028 11.4943C70.7062 11.4943 71.0471 11.402 71.3255 11.2173C71.6039 11.0327 71.8156 10.767 71.9605 10.4205C72.1053 10.0739 72.1778 9.65909 72.1778 9.17614C72.1778 8.70455 72.1068 8.28835 71.9647 7.92756C71.8227 7.56676 71.6124 7.28409 71.334 7.07955C71.0556 6.875 70.7119 6.77273 70.3028 6.77273C69.8766 6.77273 69.5215 6.88068 69.2374 7.09659C68.9562 7.3125 68.7445 7.60227 68.6025 7.96591C68.4633 8.32955 68.3937 8.73295 68.3937 9.17614C68.3937 9.63068 68.4647 10.0327 68.6068 10.3821C68.7516 10.7287 68.9647 11.0014 69.246 11.2003C69.5301 11.3963 69.8823 11.4943 70.3028 11.4943ZM75.2603 12.5682C75.0501 12.5682 74.8697 12.4929 74.7191 12.3423C74.5685 12.1918 74.4932 12.0114 74.4932 11.8011C74.4932 11.5909 74.5685 11.4105 74.7191 11.2599C74.8697 11.1094 75.0501 11.0341 75.2603 11.0341C75.4705 11.0341 75.6509 11.1094 75.8015 11.2599C75.952 11.4105 76.0273 11.5909 76.0273 11.8011C76.0273 11.9403 75.9918 12.0682 75.9208 12.1847C75.8526 12.3011 75.7603 12.3949 75.6438 12.4659C75.5302 12.5341 75.4023 12.5682 75.2603 12.5682ZM85.1561 5.95455C85.105 5.52273 84.8976 5.1875 84.5339 4.94886C84.1703 4.71023 83.7243 4.59091 83.1959 4.59091C82.8095 4.59091 82.4714 4.65341 82.1817 4.77841C81.8947 4.90341 81.6703 5.07528 81.5084 5.29403C81.3493 5.51278 81.2697 5.76136 81.2697 6.03977C81.2697 6.27273 81.3251 6.47301 81.4359 6.64062C81.5496 6.8054 81.6945 6.94318 81.8706 7.05398C82.0467 7.16193 82.2314 7.25142 82.4246 7.32244C82.6178 7.39062 82.7953 7.44602 82.9572 7.48864L83.8436 7.72727C84.0709 7.78693 84.3237 7.86932 84.6021 7.97443C84.8834 8.07955 85.1518 8.22301 85.4075 8.40483C85.6661 8.58381 85.8791 8.81392 86.0467 9.09517C86.2143 9.37642 86.2982 9.72159 86.2982 10.1307C86.2982 10.6023 86.1746 11.0284 85.9274 11.4091C85.6831 11.7898 85.3251 12.0923 84.8536 12.3168C84.3848 12.5412 83.8152 12.6534 83.1447 12.6534C82.5197 12.6534 81.9786 12.5526 81.5212 12.3509C81.0666 12.1491 80.7087 11.8679 80.4473 11.5071C80.1888 11.1463 80.0425 10.7273 80.0084 10.25H81.0993C81.1277 10.5795 81.2385 10.8523 81.4317 11.0682C81.6277 11.2812 81.8749 11.4403 82.1732 11.5455C82.4743 11.6477 82.7982 11.6989 83.1447 11.6989C83.5482 11.6989 83.9104 11.6335 84.2314 11.5028C84.5524 11.3693 84.8067 11.1847 84.9942 10.9489C85.1817 10.7102 85.2754 10.4318 85.2754 10.1136C85.2754 9.82386 85.1945 9.58807 85.0325 9.40625C84.8706 9.22443 84.6575 9.0767 84.3933 8.96307C84.1291 8.84943 83.8436 8.75 83.5368 8.66477L82.4629 8.35795C81.7811 8.16193 81.2413 7.8821 80.8436 7.51847C80.4459 7.15483 80.247 6.67898 80.247 6.09091C80.247 5.60227 80.3791 5.17614 80.6433 4.8125C80.9104 4.44602 81.2683 4.16193 81.7172 3.96023C82.1689 3.75568 82.6732 3.65341 83.23 3.65341C83.7925 3.65341 84.2925 3.75426 84.73 3.95597C85.1675 4.15483 85.5141 4.42756 85.7697 4.77415C86.0283 5.12074 86.1646 5.5142 86.1788 5.95455H85.1561ZM87.4194 14.9545V5.95455H88.391V6.99432H88.5103C88.5841 6.88068 88.6864 6.7358 88.8171 6.55966C88.9506 6.38068 89.141 6.22159 89.3881 6.08239C89.6381 5.94034 89.9762 5.86932 90.4023 5.86932C90.9535 5.86932 91.4392 6.0071 91.8597 6.28267C92.2802 6.55824 92.6083 6.94886 92.8441 7.45455C93.0799 7.96023 93.1978 8.55682 93.1978 9.24432C93.1978 9.9375 93.0799 10.5384 92.8441 11.0469C92.6083 11.5526 92.2816 11.9446 91.864 12.223C91.4463 12.4986 90.9648 12.6364 90.4194 12.6364C89.9989 12.6364 89.6623 12.5668 89.4094 12.4276C89.1566 12.2855 88.962 12.125 88.8256 11.946C88.6892 11.7642 88.5841 11.6136 88.5103 11.4943H88.425V14.9545H87.4194ZM88.408 9.22727C88.408 9.72159 88.4804 10.1577 88.6253 10.5355C88.7702 10.9105 88.9819 11.2045 89.2603 11.4176C89.5387 11.6278 89.8796 11.733 90.283 11.733C90.7035 11.733 91.0543 11.6222 91.3356 11.4006C91.6196 11.1761 91.8327 10.875 91.9748 10.4972C92.1196 10.1165 92.1921 9.69318 92.1921 9.22727C92.1921 8.76705 92.1211 8.35227 91.979 7.98295C91.8398 7.6108 91.6282 7.31676 91.3441 7.10085C91.0628 6.8821 90.7091 6.77273 90.283 6.77273C89.8739 6.77273 89.5302 6.87642 89.2517 7.08381C88.9733 7.28835 88.7631 7.57528 88.6211 7.9446C88.479 8.31108 88.408 8.73864 88.408 9.22727ZM96.9962 12.6364C96.3655 12.6364 95.8215 12.4972 95.3641 12.2188C94.9095 11.9375 94.5587 11.5455 94.3115 11.0426C94.0672 10.5369 93.945 9.94886 93.945 9.27841C93.945 8.60795 94.0672 8.01705 94.3115 7.50568C94.5587 6.99148 94.9024 6.59091 95.3428 6.30398C95.786 6.0142 96.303 5.86932 96.8939 5.86932C97.2348 5.86932 97.5715 5.92614 97.9038 6.03977C98.2362 6.15341 98.5388 6.33807 98.8115 6.59375C99.0842 6.84659 99.3016 7.18182 99.4635 7.59943C99.6254 8.01705 99.7064 8.53125 99.7064 9.14205V9.56818H94.661V8.69886H98.6837C98.6837 8.32955 98.6098 8 98.4621 7.71023C98.3172 7.42045 98.1098 7.19176 97.8399 7.02415C97.5729 6.85653 97.2575 6.77273 96.8939 6.77273C96.4933 6.77273 96.1467 6.87216 95.8541 7.07102C95.5644 7.26705 95.3413 7.52273 95.1851 7.83807C95.0288 8.15341 94.9507 8.49148 94.9507 8.85227V9.43182C94.9507 9.92614 95.036 10.3452 95.2064 10.6889C95.3797 11.0298 95.6198 11.2898 95.9266 11.4688C96.2334 11.6449 96.5899 11.733 96.9962 11.733C97.2604 11.733 97.499 11.696 97.7121 11.6222C97.928 11.5455 98.1141 11.4318 98.2703 11.2812C98.4266 11.1278 98.5473 10.9375 98.6325 10.7102L99.6041 10.983C99.5019 11.3125 99.33 11.6023 99.0885 11.8523C98.847 12.0994 98.5487 12.2926 98.1936 12.4318C97.8385 12.5682 97.4394 12.6364 96.9962 12.6364ZM103.501 12.6364C102.87 12.6364 102.326 12.4972 101.868 12.2188C101.414 11.9375 101.063 11.5455 100.816 11.0426C100.572 10.5369 100.449 9.94886 100.449 9.27841C100.449 8.60795 100.572 8.01705 100.816 7.50568C101.063 6.99148 101.407 6.59091 101.847 6.30398C102.29 6.0142 102.807 5.86932 103.398 5.86932C103.739 5.86932 104.076 5.92614 104.408 6.03977C104.741 6.15341 105.043 6.33807 105.316 6.59375C105.589 6.84659 105.806 7.18182 105.968 7.59943C106.13 8.01705 106.211 8.53125 106.211 9.14205V9.56818H101.165V8.69886H105.188C105.188 8.32955 105.114 8 104.966 7.71023C104.822 7.42045 104.614 7.19176 104.344 7.02415C104.077 6.85653 103.762 6.77273 103.398 6.77273C102.998 6.77273 102.651 6.87216 102.359 7.07102C102.069 7.26705 101.846 7.52273 101.689 7.83807C101.533 8.15341 101.455 8.49148 101.455 8.85227V9.43182C101.455 9.92614 101.54 10.3452 101.711 10.6889C101.884 11.0298 102.124 11.2898 102.431 11.4688C102.738 11.6449 103.094 11.733 103.501 11.733C103.765 11.733 104.003 11.696 104.216 11.6222C104.432 11.5455 104.618 11.4318 104.775 11.2812C104.931 11.1278 105.052 10.9375 105.137 10.7102L106.109 10.983C106.006 11.3125 105.834 11.6023 105.593 11.8523C105.351 12.0994 105.053 12.2926 104.698 12.4318C104.343 12.5682 103.944 12.6364 103.501 12.6364ZM109.732 12.6364C109.187 12.6364 108.705 12.4986 108.288 12.223C107.87 11.9446 107.543 11.5526 107.307 11.0469C107.072 10.5384 106.954 9.9375 106.954 9.24432C106.954 8.55682 107.072 7.96023 107.307 7.45455C107.543 6.94886 107.871 6.55824 108.292 6.28267C108.712 6.0071 109.198 5.86932 109.749 5.86932C110.175 5.86932 110.512 5.94034 110.759 6.08239C111.009 6.22159 111.2 6.38068 111.33 6.55966C111.464 6.7358 111.567 6.88068 111.641 6.99432H111.727V3.77273H112.732V12.5H111.761V11.4943H111.641C111.567 11.6136 111.462 11.7642 111.326 11.946C111.19 12.125 110.995 12.2855 110.742 12.4276C110.489 12.5668 110.153 12.6364 109.732 12.6364ZM109.869 11.733C110.272 11.733 110.613 11.6278 110.891 11.4176C111.17 11.2045 111.381 10.9105 111.526 10.5355C111.671 10.1577 111.744 9.72159 111.744 9.22727C111.744 8.73864 111.673 8.31108 111.53 7.9446C111.388 7.57528 111.178 7.28835 110.9 7.08381C110.621 6.87642 110.278 6.77273 109.869 6.77273C109.442 6.77273 109.087 6.8821 108.803 7.10085C108.522 7.31676 108.31 7.6108 108.168 7.98295C108.029 8.35227 107.959 8.76705 107.959 9.22727C107.959 9.69318 108.03 10.1165 108.173 10.4972C108.317 10.875 108.53 11.1761 108.812 11.4006C109.096 11.6222 109.448 11.733 109.869 11.733Z" fill="#F7F7F7"/>
<path d="M55.2045 37.5V36.4773L59.0455 32.2727C59.4962 31.7803 59.8674 31.3523 60.1591 30.9886C60.4508 30.6212 60.6667 30.2765 60.8068 29.9545C60.9508 29.6288 61.0227 29.2879 61.0227 28.9318C61.0227 28.5227 60.9242 28.1686 60.7273 27.8693C60.5341 27.5701 60.2689 27.339 59.9318 27.1761C59.5947 27.0133 59.2159 26.9318 58.7955 26.9318C58.3485 26.9318 57.9583 27.0246 57.625 27.2102C57.2955 27.392 57.0398 27.6477 56.858 27.9773C56.6799 28.3068 56.5909 28.6932 56.5909 29.1364H55.25C55.25 28.4545 55.4072 27.8561 55.7216 27.3409C56.036 26.8258 56.464 26.4242 57.0057 26.1364C57.5511 25.8485 58.1629 25.7045 58.8409 25.7045C59.5227 25.7045 60.1269 25.8485 60.6534 26.1364C61.1799 26.4242 61.5928 26.8125 61.892 27.3011C62.1913 27.7898 62.3409 28.3333 62.3409 28.9318C62.3409 29.3598 62.2633 29.7784 62.108 30.1875C61.9564 30.5928 61.6913 31.0455 61.3125 31.5455C60.9375 32.0417 60.4167 32.6477 59.75 33.3636L57.1364 36.1591V36.25H62.5455V37.5H55.2045ZM65.2557 37.5L70.4602 27.2045V27.1136H64.4602V25.8636H71.9148V27.1818L66.733 37.5H65.2557Z" fill="#F7F7F7"/>
<path d="M75.642 38.5L73.2557 29.7727H74.3295L76.1534 36.8807H76.2386L78.0966 29.7727H79.2898L81.1477 36.8807H81.233L83.0568 29.7727H84.1307L81.7443 38.5H80.6534L78.7273 31.5455H78.6591L76.733 38.5H75.642ZM84.9674 38.5V29.7727H87.9163C88.601 29.7727 89.1606 29.8963 89.5953 30.1435C90.0328 30.3878 90.3566 30.7188 90.5669 31.1364C90.7771 31.554 90.8822 32.0199 90.8822 32.5341C90.8822 33.0483 90.7771 33.5156 90.5669 33.9361C90.3595 34.3565 90.0385 34.6918 89.6038 34.9418C89.1691 35.1889 88.6123 35.3125 87.9334 35.3125H85.8197V34.375H87.8993C88.368 34.375 88.7444 34.294 89.0285 34.1321C89.3126 33.9702 89.5186 33.7514 89.6464 33.4759C89.7771 33.1974 89.8424 32.8835 89.8424 32.5341C89.8424 32.1847 89.7771 31.8722 89.6464 31.5966C89.5186 31.321 89.3112 31.1051 89.0243 30.9489C88.7373 30.7898 88.3566 30.7102 87.8822 30.7102H86.0243V38.5H84.9674ZM92.1046 29.7727H93.366L96.3319 37.017H96.4342L99.4001 29.7727H100.661V38.5H99.6728V31.8693H99.5876L96.8603 38.5H95.9058L93.1785 31.8693H93.0933V38.5H92.1046V29.7727Z" fill="#F7F7F7"/>
</svg>
