<svg width="314" height="26" viewBox="0 0 314 26" fill="none" xmlns="http://www.w3.org/2000/svg">
<rect x="0.5" y="0.5" width="313" height="25" fill="url(#paint0_linear_53_115)" fill-opacity="0.2"/>
<rect x="0.5" y="0.5" width="313" height="25" stroke="black"/>
<path d="M143.705 12.1818C143.705 10.75 143.89 9.43371 144.261 8.23295C144.636 7.02841 145.17 5.92045 145.864 4.90909H147.045C146.773 5.28409 146.517 5.74621 146.278 6.29545C146.044 6.84091 145.837 7.44129 145.659 8.09659C145.481 8.74811 145.341 9.42235 145.239 10.1193C145.14 10.8163 145.091 11.5038 145.091 12.1818C145.091 13.0833 145.178 13.9981 145.352 14.9261C145.527 15.8542 145.761 16.7159 146.057 17.5114C146.352 18.3068 146.682 18.9545 147.045 19.4545H145.864C145.17 18.4432 144.636 17.3371 144.261 16.1364C143.89 14.9318 143.705 13.6136 143.705 12.1818ZM153.092 6.36364V18H151.683V7.84091H151.615L148.774 9.72727V8.29545L151.683 6.36364H153.092ZM160.575 5.81818L156.825 19.75H155.598L159.348 5.81818H160.575ZM165.778 18.1591C165.112 18.1591 164.511 18.0265 163.977 17.7614C163.443 17.4962 163.015 17.1326 162.693 16.6705C162.371 16.2083 162.195 15.6818 162.165 15.0909H163.528C163.581 15.6174 163.82 16.053 164.244 16.3977C164.672 16.7386 165.184 16.9091 165.778 16.9091C166.256 16.9091 166.68 16.7973 167.051 16.5739C167.426 16.3504 167.72 16.0436 167.932 15.6534C168.148 15.2595 168.256 14.8144 168.256 14.3182C168.256 13.8106 168.144 13.358 167.92 12.9602C167.701 12.5587 167.398 12.2424 167.011 12.0114C166.625 11.7803 166.184 11.6629 165.688 11.6591C165.331 11.6553 164.966 11.7102 164.591 11.8239C164.216 11.9337 163.907 12.0758 163.665 12.25L162.347 12.0909L163.051 6.36364H169.097V7.61364H164.233L163.824 11.0455H163.892C164.131 10.8561 164.43 10.6989 164.79 10.5739C165.15 10.4489 165.525 10.3864 165.915 10.3864C166.627 10.3864 167.261 10.5568 167.818 10.8977C168.379 11.2348 168.818 11.697 169.136 12.2841C169.458 12.8712 169.619 13.5417 169.619 14.2955C169.619 15.0379 169.453 15.7008 169.119 16.2841C168.79 16.8636 168.335 17.322 167.756 17.6591C167.176 17.9924 166.517 18.1591 165.778 18.1591ZM174.763 12.1818C174.763 13.6136 174.575 14.9318 174.2 16.1364C173.829 17.3371 173.297 18.4432 172.604 19.4545H171.422C171.695 19.0795 171.948 18.6174 172.183 18.0682C172.422 17.5227 172.63 16.9242 172.808 16.2727C172.986 15.6174 173.125 14.9413 173.223 14.2443C173.325 13.5436 173.376 12.8561 173.376 12.1818C173.376 11.2803 173.289 10.3655 173.115 9.4375C172.941 8.50947 172.706 7.64773 172.411 6.85227C172.115 6.05682 171.786 5.40909 171.422 4.90909H172.604C173.297 5.92045 173.829 7.02841 174.2 8.23295C174.575 9.43371 174.763 10.75 174.763 12.1818Z" fill="white"/>
<path d="M245.168 17.0994C244.869 17.0947 244.571 17.0379 244.273 16.929C243.974 16.8201 243.702 16.6366 243.456 16.3786C243.21 16.1181 243.012 15.7666 242.863 15.3239C242.714 14.8788 242.639 14.3201 242.639 13.6477C242.639 13.0038 242.7 12.4332 242.82 11.9361C242.941 11.4366 243.116 11.0163 243.346 10.6754C243.576 10.3321 243.853 10.0717 244.177 9.89418C244.504 9.71662 244.872 9.62784 245.281 9.62784C245.688 9.62784 246.051 9.70952 246.368 9.87287C246.688 10.0339 246.948 10.2588 247.149 10.5476C247.35 10.8364 247.481 11.169 247.54 11.5455H246.673C246.593 11.2187 246.437 10.9477 246.205 10.7322C245.973 10.5168 245.665 10.4091 245.281 10.4091C244.718 10.4091 244.274 10.6541 243.95 11.1442C243.628 11.6342 243.465 12.322 243.463 13.2074H243.52C243.652 13.0062 243.81 12.8345 243.992 12.6925C244.177 12.5481 244.38 12.4368 244.603 12.3587C244.826 12.2805 245.061 12.2415 245.31 12.2415C245.726 12.2415 246.107 12.3456 246.453 12.554C246.799 12.7599 247.076 13.0452 247.284 13.4098C247.492 13.772 247.597 14.1875 247.597 14.6562C247.597 15.1061 247.496 15.518 247.295 15.892C247.094 16.2637 246.811 16.5597 246.446 16.7798C246.084 16.9976 245.658 17.1042 245.168 17.0994ZM245.168 16.3182C245.466 16.3182 245.733 16.2436 245.97 16.0945C246.209 15.9453 246.397 15.7453 246.535 15.4943C246.674 15.2434 246.744 14.964 246.744 14.6562C246.744 14.3556 246.677 14.0821 246.542 13.8359C246.409 13.5874 246.226 13.3897 245.991 13.2429C245.759 13.0961 245.494 13.0227 245.196 13.0227C244.971 13.0227 244.762 13.0677 244.567 13.1577C244.373 13.2453 244.203 13.366 244.056 13.5199C243.912 13.6738 243.798 13.8501 243.715 14.049C243.632 14.2455 243.591 14.4527 243.591 14.6705C243.591 14.9593 243.658 15.2292 243.793 15.4801C243.931 15.7311 244.118 15.9335 244.354 16.0874C244.594 16.2412 244.865 16.3182 245.168 16.3182ZM249.915 16.0057L249.859 16.3892C249.818 16.6591 249.757 16.9479 249.674 17.2557C249.594 17.5634 249.509 17.8535 249.422 18.1257C249.334 18.398 249.262 18.6146 249.205 18.7756H248.566C248.597 18.6241 248.637 18.424 248.687 18.1754C248.737 17.9268 248.786 17.6487 248.836 17.3409C248.888 17.0355 248.931 16.723 248.964 16.4034L249.006 16.0057H249.915ZM253.615 17.0994C253.317 17.0947 253.018 17.0379 252.72 16.929C252.422 16.8201 252.149 16.6366 251.903 16.3786C251.657 16.1181 251.459 15.7666 251.31 15.3239C251.161 14.8788 251.086 14.3201 251.086 13.6477C251.086 13.0038 251.147 12.4332 251.268 11.9361C251.388 11.4366 251.564 11.0163 251.793 10.6754C252.023 10.3321 252.3 10.0717 252.624 9.89418C252.951 9.71662 253.319 9.62784 253.729 9.62784C254.136 9.62784 254.498 9.70952 254.815 9.87287C255.135 10.0339 255.395 10.2588 255.596 10.5476C255.798 10.8364 255.928 11.169 255.987 11.5455H255.121C255.04 11.2187 254.884 10.9477 254.652 10.7322C254.42 10.5168 254.112 10.4091 253.729 10.4091C253.165 10.4091 252.721 10.6541 252.397 11.1442C252.075 11.6342 251.913 12.322 251.91 13.2074H251.967C252.1 13.0062 252.257 12.8345 252.439 12.6925C252.624 12.5481 252.828 12.4368 253.05 12.3587C253.273 12.2805 253.508 12.2415 253.757 12.2415C254.174 12.2415 254.555 12.3456 254.9 12.554C255.246 12.7599 255.523 13.0452 255.731 13.4098C255.94 13.772 256.044 14.1875 256.044 14.6562C256.044 15.1061 255.943 15.518 255.742 15.892C255.541 16.2637 255.258 16.5597 254.893 16.7798C254.531 16.9976 254.105 17.1042 253.615 17.0994ZM253.615 16.3182C253.913 16.3182 254.181 16.2436 254.417 16.0945C254.657 15.9453 254.845 15.7453 254.982 15.4943C255.122 15.2434 255.192 14.964 255.192 14.6562C255.192 14.3556 255.124 14.0821 254.989 13.8359C254.857 13.5874 254.673 13.3897 254.439 13.2429C254.207 13.0961 253.942 13.0227 253.643 13.0227C253.418 13.0227 253.209 13.0677 253.015 13.1577C252.821 13.2453 252.65 13.366 252.503 13.5199C252.359 13.6738 252.245 13.8501 252.162 14.049C252.08 14.2455 252.038 14.4527 252.038 14.6705C252.038 14.9593 252.106 15.2292 252.241 15.4801C252.378 15.7311 252.565 15.9335 252.802 16.0874C253.041 16.2412 253.312 16.3182 253.615 16.3182ZM257.668 17L260.92 10.5653V10.5085H257.17V9.72727H261.83V10.5511L258.591 17H257.668ZM265.336 17.0994C264.849 17.0994 264.418 17.013 264.044 16.8402C263.672 16.665 263.382 16.4247 263.174 16.1193C262.965 15.8116 262.862 15.4612 262.865 15.0682C262.862 14.7604 262.923 14.4763 263.046 14.2159C263.169 13.9531 263.337 13.7341 263.55 13.5589C263.766 13.3814 264.006 13.2689 264.271 13.2216V13.179C263.923 13.089 263.646 12.8937 263.44 12.593C263.234 12.29 263.132 11.9455 263.135 11.5597C263.132 11.1903 263.226 10.8601 263.415 10.5689C263.605 10.2777 263.865 10.0481 264.196 9.87997C264.53 9.71188 264.91 9.62784 265.336 9.62784C265.758 9.62784 266.134 9.71188 266.466 9.87997C266.797 10.0481 267.057 10.2777 267.247 10.5689C267.439 10.8601 267.536 11.1903 267.538 11.5597C267.536 11.9455 267.43 12.29 267.222 12.593C267.016 12.8937 266.743 13.089 266.402 13.179V13.2216C266.664 13.2689 266.901 13.3814 267.112 13.5589C267.323 13.7341 267.491 13.9531 267.616 14.2159C267.742 14.4763 267.806 14.7604 267.808 15.0682C267.806 15.4612 267.699 15.8116 267.488 16.1193C267.28 16.4247 266.99 16.665 266.618 16.8402C266.249 17.013 265.822 17.0994 265.336 17.0994ZM265.336 16.3182C265.665 16.3182 265.949 16.2649 266.189 16.1584C266.428 16.0518 266.612 15.9015 266.743 15.7074C266.873 15.5133 266.939 15.286 266.941 15.0256C266.939 14.7509 266.868 14.5083 266.728 14.2976C266.589 14.0869 266.398 13.9212 266.157 13.8004C265.917 13.6797 265.644 13.6193 265.336 13.6193C265.026 13.6193 264.749 13.6797 264.505 13.8004C264.264 13.9212 264.073 14.0869 263.934 14.2976C263.796 14.5083 263.729 14.7509 263.731 15.0256C263.729 15.286 263.792 15.5133 263.919 15.7074C264.05 15.9015 264.235 16.0518 264.477 16.1584C264.718 16.2649 265.005 16.3182 265.336 16.3182ZM265.336 12.8665C265.597 12.8665 265.828 12.8144 266.029 12.7102C266.232 12.6061 266.392 12.4605 266.508 12.2734C266.624 12.0864 266.683 11.8674 266.686 11.6165C266.683 11.3703 266.625 11.156 266.512 10.9737C266.398 10.7891 266.241 10.647 266.039 10.5476C265.838 10.4458 265.604 10.3949 265.336 10.3949C265.064 10.3949 264.826 10.4458 264.623 10.5476C264.419 10.647 264.261 10.7891 264.15 10.9737C264.039 11.156 263.984 11.3703 263.987 11.6165C263.984 11.8674 264.04 12.0864 264.154 12.2734C264.27 12.4605 264.43 12.6061 264.633 12.7102C264.837 12.8144 265.071 12.8665 265.336 12.8665ZM269.808 11.5455L271.115 13.7756L272.422 11.5455H273.388L271.626 14.2727L273.388 17H272.422L271.115 14.8835L269.808 17H268.842L270.575 14.2727L268.842 11.5455H269.808ZM274.583 19.0455V11.5455H275.393V12.4119H275.493C275.554 12.3172 275.639 12.1965 275.748 12.0497C275.859 11.9006 276.018 11.768 276.224 11.652C276.432 11.5336 276.714 11.4744 277.069 11.4744C277.529 11.4744 277.933 11.5893 278.284 11.8189C278.634 12.0485 278.908 12.3741 279.104 12.7955C279.301 13.2169 279.399 13.714 279.399 14.2869C279.399 14.8646 279.301 15.3653 279.104 15.7891C278.908 16.2105 278.635 16.5372 278.287 16.7692C277.939 16.9988 277.538 17.1136 277.083 17.1136C276.733 17.1136 276.453 17.0556 276.242 16.9396C276.031 16.8213 275.869 16.6875 275.755 16.5384C275.642 16.3868 275.554 16.2614 275.493 16.1619H275.422V19.0455H274.583ZM275.407 14.2727C275.407 14.6847 275.468 15.0481 275.588 15.3629C275.709 15.6754 275.886 15.9205 276.118 16.098C276.35 16.2732 276.634 16.3608 276.97 16.3608C277.32 16.3608 277.613 16.2685 277.847 16.0838C278.084 15.8968 278.261 15.6458 278.38 15.331C278.5 15.0137 278.561 14.661 278.561 14.2727C278.561 13.8892 278.502 13.5436 278.383 13.2358C278.267 12.9257 278.091 12.6806 277.854 12.5007C277.62 12.3184 277.325 12.2273 276.97 12.2273C276.629 12.2273 276.342 12.3137 276.11 12.4865C275.878 12.657 275.703 12.8961 275.585 13.2038C275.467 13.5092 275.407 13.8655 275.407 14.2727ZM285.862 11.5455V12.2557H283.035V11.5455H285.862ZM283.859 10.2386H284.697V15.4375C284.697 15.6742 284.731 15.8518 284.8 15.9702C284.871 16.0862 284.961 16.1643 285.07 16.2045C285.181 16.2424 285.298 16.2614 285.422 16.2614C285.514 16.2614 285.59 16.2566 285.649 16.2472C285.708 16.2353 285.755 16.2259 285.791 16.2188L285.961 16.9716C285.904 16.9929 285.825 17.0142 285.723 17.0355C285.622 17.0592 285.493 17.071 285.336 17.071C285.1 17.071 284.868 17.0201 284.64 16.9183C284.415 16.8165 284.228 16.6615 284.079 16.4531C283.932 16.2448 283.859 15.982 283.859 15.6648V10.2386ZM289.28 17.1136C288.787 17.1136 288.355 16.9964 287.984 16.7621C287.614 16.5277 287.326 16.1998 287.117 15.7784C286.911 15.357 286.808 14.8646 286.808 14.3011C286.808 13.733 286.911 13.237 287.117 12.8132C287.326 12.3894 287.614 12.0604 287.984 11.826C288.355 11.5916 288.787 11.4744 289.28 11.4744C289.772 11.4744 290.203 11.5916 290.572 11.826C290.944 12.0604 291.233 12.3894 291.439 12.8132C291.647 13.237 291.751 13.733 291.751 14.3011C291.751 14.8646 291.647 15.357 291.439 15.7784C291.233 16.1998 290.944 16.5277 290.572 16.7621C290.203 16.9964 289.772 17.1136 289.28 17.1136ZM289.28 16.3608C289.654 16.3608 289.962 16.2649 290.203 16.0732C290.445 15.8814 290.623 15.6293 290.739 15.3168C290.855 15.0043 290.913 14.6657 290.913 14.3011C290.913 13.9366 290.855 13.5968 290.739 13.282C290.623 12.9671 290.445 12.7126 290.203 12.5185C289.962 12.3243 289.654 12.2273 289.28 12.2273C288.906 12.2273 288.598 12.3243 288.357 12.5185C288.115 12.7126 287.936 12.9671 287.82 13.282C287.704 13.5968 287.646 13.9366 287.646 14.3011C287.646 14.6657 287.704 15.0043 287.82 15.3168C287.936 15.6293 288.115 15.8814 288.357 16.0732C288.598 16.2649 288.906 16.3608 289.28 16.3608ZM298.045 19.1591C297.64 19.1591 297.292 19.107 297.001 19.0028C296.71 18.901 296.467 18.7661 296.273 18.598C296.081 18.4323 295.928 18.2547 295.815 18.0653L296.482 17.5966C296.558 17.696 296.654 17.8097 296.77 17.9375C296.886 18.0677 297.045 18.1802 297.246 18.2749C297.45 18.3719 297.716 18.4205 298.045 18.4205C298.485 18.4205 298.849 18.3139 299.135 18.1009C299.422 17.8878 299.565 17.554 299.565 17.0994V15.9915H299.494C299.432 16.0909 299.345 16.214 299.231 16.3608C299.12 16.5052 298.959 16.6342 298.748 16.7479C298.54 16.8591 298.258 16.9148 297.903 16.9148C297.463 16.9148 297.067 16.8106 296.717 16.6023C296.369 16.3939 296.093 16.0909 295.889 15.6932C295.688 15.2955 295.588 14.8125 295.588 14.2443C295.588 13.6856 295.686 13.1991 295.882 12.7848C296.079 12.3681 296.352 12.0462 296.703 11.8189C297.053 11.5893 297.458 11.4744 297.917 11.4744C298.272 11.4744 298.554 11.5336 298.762 11.652C298.973 11.768 299.134 11.9006 299.245 12.0497C299.359 12.1965 299.446 12.3172 299.508 12.4119H299.593V11.5455H300.403V17.1562C300.403 17.625 300.296 18.0062 300.083 18.2997C299.873 18.5956 299.588 18.8123 299.231 18.9496C298.876 19.0893 298.481 19.1591 298.045 19.1591ZM298.017 16.1619C298.353 16.1619 298.637 16.085 298.869 15.9311C299.101 15.7772 299.277 15.5559 299.398 15.267C299.519 14.9782 299.579 14.6326 299.579 14.2301C299.579 13.8371 299.52 13.4903 299.401 13.1896C299.283 12.889 299.108 12.6534 298.876 12.483C298.644 12.3125 298.357 12.2273 298.017 12.2273C297.661 12.2273 297.365 12.3172 297.129 12.4972C296.894 12.6771 296.718 12.9186 296.6 13.2216C296.484 13.5246 296.426 13.8608 296.426 14.2301C296.426 14.6089 296.485 14.9439 296.603 15.2351C296.724 15.5239 296.901 15.7512 297.136 15.9169C297.373 16.0803 297.666 16.1619 298.017 16.1619ZM304.153 17.1136C303.66 17.1136 303.228 16.9964 302.857 16.7621C302.487 16.5277 302.199 16.1998 301.99 15.7784C301.784 15.357 301.681 14.8646 301.681 14.3011C301.681 13.733 301.784 13.237 301.99 12.8132C302.199 12.3894 302.487 12.0604 302.857 11.826C303.228 11.5916 303.66 11.4744 304.153 11.4744C304.645 11.4744 305.076 11.5916 305.445 11.826C305.817 12.0604 306.106 12.3894 306.312 12.8132C306.52 13.237 306.624 13.733 306.624 14.3011C306.624 14.8646 306.52 15.357 306.312 15.7784C306.106 16.1998 305.817 16.5277 305.445 16.7621C305.076 16.9964 304.645 17.1136 304.153 17.1136ZM304.153 16.3608C304.527 16.3608 304.835 16.2649 305.076 16.0732C305.318 15.8814 305.496 15.6293 305.612 15.3168C305.728 15.0043 305.786 14.6657 305.786 14.3011C305.786 13.9366 305.728 13.5968 305.612 13.282C305.496 12.9671 305.318 12.7126 305.076 12.5185C304.835 12.3243 304.527 12.2273 304.153 12.2273C303.779 12.2273 303.471 12.3243 303.23 12.5185C302.988 12.7126 302.809 12.9671 302.693 13.282C302.577 13.5968 302.519 13.9366 302.519 14.3011C302.519 14.6657 302.577 15.0043 302.693 15.3168C302.809 15.6293 302.988 15.8814 303.23 16.0732C303.471 16.2649 303.779 16.3608 304.153 16.3608Z" fill="#989898"/>
<rect x="1" y="1" width="36" height="25" fill="#B4E706"/>
<path d="M19.7727 7.61364V6.36364H28.5V7.61364H24.8409V18H23.4318V7.61364H19.7727ZM30.3565 21.2727C30.1293 21.2727 29.9266 21.2538 29.7486 21.2159C29.5705 21.1818 29.4474 21.1477 29.3793 21.1136L29.7202 19.9318C30.0459 20.0152 30.3338 20.0455 30.5838 20.0227C30.8338 20 31.0554 19.8883 31.2486 19.6875C31.4455 19.4905 31.6255 19.1705 31.7884 18.7273L32.0384 18.0455L28.8111 9.27273H30.2656L32.6747 16.2273H32.7656L35.1747 9.27273H36.6293L32.9247 19.2727C32.758 19.7235 32.5516 20.0966 32.3054 20.392C32.0592 20.6913 31.7732 20.9129 31.4474 21.0568C31.1255 21.2008 30.7618 21.2727 30.3565 21.2727Z" fill="#030101"/>
<path d="M38.3991 21.2727V9.27273H39.6946V10.6591H39.8537C39.9522 10.5076 40.0885 10.3144 40.2628 10.0795C40.4408 9.84091 40.6946 9.62879 41.0241 9.44318C41.3575 9.25379 41.8082 9.15909 42.3764 9.15909C43.1113 9.15909 43.759 9.3428 44.3196 9.71023C44.8802 10.0777 45.3177 10.5985 45.6321 11.2727C45.9465 11.947 46.1037 12.7424 46.1037 13.6591C46.1037 14.5833 45.9465 15.3845 45.6321 16.0625C45.3177 16.7367 44.8821 17.2595 44.3253 17.6307C43.7685 17.9981 43.1264 18.1818 42.3991 18.1818C41.8385 18.1818 41.3897 18.089 41.0526 17.9034C40.7154 17.714 40.456 17.5 40.2741 17.2614C40.0923 17.0189 39.9522 16.8182 39.8537 16.6591H39.7401V21.2727H38.3991ZM39.7173 13.6364C39.7173 14.2955 39.8139 14.8769 40.0071 15.3807C40.2003 15.8807 40.4825 16.2727 40.8537 16.5568C41.2249 16.8371 41.6795 16.9773 42.2173 16.9773C42.7779 16.9773 43.2457 16.8295 43.6207 16.5341C43.9995 16.2348 44.2836 15.8333 44.473 15.3295C44.6662 14.822 44.7628 14.2576 44.7628 13.6364C44.7628 13.0227 44.6681 12.4697 44.4787 11.9773C44.2931 11.4811 44.0109 11.089 43.6321 10.8011C43.2571 10.5095 42.7855 10.3636 42.2173 10.3636C41.6719 10.3636 41.2135 10.5019 40.8423 10.7784C40.4711 11.0511 40.1908 11.4337 40.0014 11.9261C39.812 12.4148 39.7173 12.9848 39.7173 13.6364ZM48.1491 18V9.27273H49.4901V18H48.1491ZM48.831 7.81818C48.5696 7.81818 48.3442 7.72917 48.1548 7.55114C47.9692 7.37311 47.8764 7.15909 47.8764 6.90909C47.8764 6.65909 47.9692 6.44508 48.1548 6.26705C48.3442 6.08902 48.5696 6 48.831 6C49.0923 6 49.3158 6.08902 49.5014 6.26705C49.6908 6.44508 49.7855 6.65909 49.7855 6.90909C49.7855 7.15909 49.6908 7.37311 49.5014 7.55114C49.3158 7.72917 49.0923 7.81818 48.831 7.81818ZM53.2869 12.75V18H51.946V9.27273H53.2415V10.6364H53.3551C53.5597 10.1932 53.8703 9.83712 54.2869 9.56818C54.7036 9.29545 55.2415 9.15909 55.9006 9.15909C56.4915 9.15909 57.0085 9.2803 57.4517 9.52273C57.8949 9.76136 58.2396 10.125 58.4858 10.6136C58.732 11.0985 58.8551 11.7121 58.8551 12.4545V18H57.5142V12.5455C57.5142 11.8598 57.3362 11.3258 56.9801 10.9432C56.6241 10.5568 56.1354 10.3636 55.5142 10.3636C55.0862 10.3636 54.7036 10.4564 54.3665 10.642C54.0331 10.8277 53.7699 11.0985 53.5767 11.4545C53.3835 11.8106 53.2869 12.2424 53.2869 12.75ZM64.8281 21.4545C64.1804 21.4545 63.6236 21.3712 63.1577 21.2045C62.6918 21.0417 62.3035 20.8258 61.9929 20.5568C61.6861 20.2917 61.4418 20.0076 61.2599 19.7045L62.3281 18.9545C62.4493 19.1136 62.6027 19.2955 62.7884 19.5C62.974 19.7083 63.2277 19.8883 63.5497 20.0398C63.8755 20.1951 64.3016 20.2727 64.8281 20.2727C65.5327 20.2727 66.1141 20.1023 66.5724 19.7614C67.0308 19.4205 67.2599 18.8864 67.2599 18.1591V16.3864H67.1463C67.0478 16.5455 66.9077 16.7424 66.7259 16.9773C66.5478 17.2083 66.2902 17.4148 65.9531 17.5966C65.6198 17.7746 65.169 17.8636 64.6009 17.8636C63.8963 17.8636 63.2637 17.697 62.7031 17.3636C62.1463 17.0303 61.705 16.5455 61.3793 15.9091C61.0573 15.2727 60.8963 14.5 60.8963 13.5909C60.8963 12.697 61.0535 11.9186 61.3679 11.2557C61.6823 10.589 62.1198 10.0739 62.6804 9.71023C63.241 9.3428 63.8887 9.15909 64.6236 9.15909C65.1918 9.15909 65.6425 9.25379 65.9759 9.44318C66.313 9.62879 66.5705 9.84091 66.7486 10.0795C66.9304 10.3144 67.0705 10.5076 67.169 10.6591H67.3054V9.27273H68.6009V18.25C68.6009 19 68.4304 19.6098 68.0895 20.0795C67.7524 20.553 67.2978 20.8996 66.7259 21.1193C66.1577 21.3428 65.5251 21.4545 64.8281 21.4545ZM64.7827 16.6591C65.3205 16.6591 65.7751 16.536 66.1463 16.2898C66.5175 16.0436 66.7997 15.6894 66.9929 15.2273C67.1861 14.7652 67.2827 14.2121 67.2827 13.5682C67.2827 12.9394 67.188 12.3845 66.9986 11.9034C66.8092 11.4223 66.5289 11.0455 66.1577 10.7727C65.7865 10.5 65.3281 10.3636 64.7827 10.3636C64.2145 10.3636 63.741 10.5076 63.3622 10.7955C62.9872 11.0833 62.705 11.4697 62.5156 11.9545C62.33 12.4394 62.2372 12.9773 62.2372 13.5682C62.2372 14.1742 62.3319 14.7102 62.5213 15.1761C62.7145 15.6383 62.9986 16.0019 63.3736 16.267C63.7524 16.5284 64.2221 16.6591 64.7827 16.6591ZM75.7372 18V6.36364H79.669C80.5819 6.36364 81.3281 6.52841 81.9077 6.85795C82.491 7.18371 82.9228 7.625 83.2031 8.18182C83.4834 8.73864 83.6236 9.35985 83.6236 10.0455C83.6236 10.7311 83.4834 11.3542 83.2031 11.9148C82.9266 12.4754 82.4986 12.9223 81.919 13.2557C81.3395 13.5852 80.5971 13.75 79.6918 13.75H76.8736V12.5H79.6463C80.2713 12.5 80.7732 12.392 81.152 12.1761C81.5308 11.9602 81.8054 11.6686 81.9759 11.3011C82.1501 10.9299 82.2372 10.5114 82.2372 10.0455C82.2372 9.57955 82.1501 9.16288 81.9759 8.79545C81.8054 8.42803 81.5289 8.14015 81.1463 7.93182C80.7637 7.7197 80.2562 7.61364 79.6236 7.61364H77.1463V18H75.7372ZM85.7116 18V9.27273H87.0071V10.5909H87.098C87.2571 10.1591 87.545 9.80871 87.9616 9.53977C88.3783 9.27083 88.848 9.13636 89.3707 9.13636C89.4692 9.13636 89.5923 9.13826 89.7401 9.14205C89.8878 9.14583 89.9995 9.15152 90.0753 9.15909V10.5227C90.0298 10.5114 89.9257 10.4943 89.7628 10.4716C89.6037 10.4451 89.4351 10.4318 89.2571 10.4318C88.8329 10.4318 88.4541 10.5208 88.1207 10.6989C87.7912 10.8731 87.5298 11.1155 87.3366 11.4261C87.1473 11.733 87.0526 12.0833 87.0526 12.4773V18H85.7116ZM94.9446 18.1818C94.1567 18.1818 93.4654 17.9943 92.8707 17.6193C92.2798 17.2443 91.8177 16.7197 91.4844 16.0455C91.1548 15.3712 90.9901 14.5833 90.9901 13.6818C90.9901 12.7727 91.1548 11.9792 91.4844 11.3011C91.8177 10.6231 92.2798 10.0966 92.8707 9.72159C93.4654 9.34659 94.1567 9.15909 94.9446 9.15909C95.7325 9.15909 96.4219 9.34659 97.0128 9.72159C97.6075 10.0966 98.0696 10.6231 98.3991 11.3011C98.7325 11.9792 98.8991 12.7727 98.8991 13.6818C98.8991 14.5833 98.7325 15.3712 98.3991 16.0455C98.0696 16.7197 97.6075 17.2443 97.0128 17.6193C96.4219 17.9943 95.7325 18.1818 94.9446 18.1818ZM94.9446 16.9773C95.5431 16.9773 96.0355 16.8239 96.4219 16.517C96.8082 16.2102 97.0942 15.8068 97.2798 15.3068C97.4654 14.8068 97.5582 14.2652 97.5582 13.6818C97.5582 13.0985 97.4654 12.5549 97.2798 12.0511C97.0942 11.5473 96.8082 11.1402 96.4219 10.8295C96.0355 10.5189 95.5431 10.3636 94.9446 10.3636C94.3461 10.3636 93.8537 10.5189 93.4673 10.8295C93.081 11.1402 92.795 11.5473 92.6094 12.0511C92.4238 12.5549 92.331 13.0985 92.331 13.6818C92.331 14.2652 92.4238 14.8068 92.6094 15.3068C92.795 15.8068 93.081 16.2102 93.4673 16.517C93.8537 16.8239 94.3461 16.9773 94.9446 16.9773ZM104.469 21.4545C103.821 21.4545 103.264 21.3712 102.798 21.2045C102.332 21.0417 101.944 20.8258 101.634 20.5568C101.327 20.2917 101.082 20.0076 100.901 19.7045L101.969 18.9545C102.09 19.1136 102.243 19.2955 102.429 19.5C102.615 19.7083 102.868 19.8883 103.19 20.0398C103.516 20.1951 103.942 20.2727 104.469 20.2727C105.173 20.2727 105.755 20.1023 106.213 19.7614C106.671 19.4205 106.901 18.8864 106.901 18.1591V16.3864H106.787C106.688 16.5455 106.548 16.7424 106.366 16.9773C106.188 17.2083 105.931 17.4148 105.594 17.5966C105.26 17.7746 104.81 17.8636 104.241 17.8636C103.537 17.8636 102.904 17.697 102.344 17.3636C101.787 17.0303 101.346 16.5455 101.02 15.9091C100.698 15.2727 100.537 14.5 100.537 13.5909C100.537 12.697 100.694 11.9186 101.009 11.2557C101.323 10.589 101.76 10.0739 102.321 9.71023C102.882 9.3428 103.529 9.15909 104.264 9.15909C104.832 9.15909 105.283 9.25379 105.616 9.44318C105.954 9.62879 106.211 9.84091 106.389 10.0795C106.571 10.3144 106.711 10.5076 106.81 10.6591H106.946V9.27273H108.241V18.25C108.241 19 108.071 19.6098 107.73 20.0795C107.393 20.553 106.938 20.8996 106.366 21.1193C105.798 21.3428 105.166 21.4545 104.469 21.4545ZM104.423 16.6591C104.961 16.6591 105.416 16.536 105.787 16.2898C106.158 16.0436 106.44 15.6894 106.634 15.2273C106.827 14.7652 106.923 14.2121 106.923 13.5682C106.923 12.9394 106.829 12.3845 106.639 11.9034C106.45 11.4223 106.17 11.0455 105.798 10.7727C105.427 10.5 104.969 10.3636 104.423 10.3636C103.855 10.3636 103.382 10.5076 103.003 10.7955C102.628 11.0833 102.346 11.4697 102.156 11.9545C101.971 12.4394 101.878 12.9773 101.878 13.5682C101.878 14.1742 101.973 14.7102 102.162 15.1761C102.355 15.6383 102.639 16.0019 103.014 16.267C103.393 16.5284 103.863 16.6591 104.423 16.6591ZM110.696 18V9.27273H111.991V10.5909H112.082C112.241 10.1591 112.529 9.80871 112.946 9.53977C113.363 9.27083 113.832 9.13636 114.355 9.13636C114.454 9.13636 114.577 9.13826 114.724 9.14205C114.872 9.14583 114.984 9.15152 115.06 9.15909V10.5227C115.014 10.5114 114.91 10.4943 114.747 10.4716C114.588 10.4451 114.42 10.4318 114.241 10.4318C113.817 10.4318 113.438 10.5208 113.105 10.6989C112.776 10.8731 112.514 11.1155 112.321 11.4261C112.132 11.733 112.037 12.0833 112.037 12.4773V18H110.696ZM120.043 18.1818C119.202 18.1818 118.476 17.9962 117.866 17.625C117.26 17.25 116.793 16.7273 116.463 16.0568C116.137 15.3826 115.974 14.5985 115.974 13.7045C115.974 12.8106 116.137 12.0227 116.463 11.3409C116.793 10.6553 117.251 10.1212 117.838 9.73864C118.429 9.35227 119.118 9.15909 119.906 9.15909C120.361 9.15909 120.81 9.23485 121.253 9.38636C121.696 9.53788 122.099 9.78409 122.463 10.125C122.827 10.4621 123.116 10.9091 123.332 11.4659C123.548 12.0227 123.656 12.7083 123.656 13.5227V14.0909H116.929V12.9318H122.293C122.293 12.4394 122.194 12 121.997 11.6136C121.804 11.2273 121.527 10.9223 121.168 10.6989C120.812 10.4754 120.391 10.3636 119.906 10.3636C119.372 10.3636 118.91 10.4962 118.52 10.7614C118.134 11.0227 117.836 11.3636 117.628 11.7841C117.42 12.2045 117.315 12.6553 117.315 13.1364V13.9091C117.315 14.5682 117.429 15.1269 117.656 15.5852C117.887 16.0398 118.207 16.3864 118.616 16.625C119.026 16.8598 119.501 16.9773 120.043 16.9773C120.395 16.9773 120.713 16.928 120.997 16.8295C121.285 16.7273 121.533 16.5758 121.741 16.375C121.95 16.1705 122.111 15.9167 122.224 15.6136L123.52 15.9773C123.384 16.4167 123.154 16.803 122.832 17.1364C122.51 17.4659 122.113 17.7235 121.639 17.9091C121.166 18.0909 120.634 18.1818 120.043 18.1818ZM131.878 11.2273L130.673 11.5682C130.598 11.3674 130.486 11.1723 130.338 10.983C130.194 10.7898 129.997 10.6307 129.747 10.5057C129.497 10.3807 129.177 10.3182 128.787 10.3182C128.253 10.3182 127.808 10.4413 127.452 10.6875C127.099 10.9299 126.923 11.2386 126.923 11.6136C126.923 11.947 127.045 12.2102 127.287 12.4034C127.529 12.5966 127.908 12.7576 128.423 12.8864L129.719 13.2045C130.499 13.3939 131.08 13.6837 131.463 14.0739C131.846 14.4602 132.037 14.9583 132.037 15.5682C132.037 16.0682 131.893 16.5152 131.605 16.9091C131.321 17.303 130.923 17.6136 130.412 17.8409C129.901 18.0682 129.306 18.1818 128.628 18.1818C127.738 18.1818 127.001 17.9886 126.418 17.6023C125.834 17.2159 125.465 16.6515 125.31 15.9091L126.582 15.5909C126.704 16.0606 126.933 16.4129 127.27 16.6477C127.611 16.8826 128.056 17 128.605 17C129.23 17 129.726 16.8674 130.094 16.6023C130.465 16.3333 130.651 16.0114 130.651 15.6364C130.651 15.3333 130.545 15.0795 130.332 14.875C130.12 14.6667 129.795 14.5114 129.355 14.4091L127.901 14.0682C127.101 13.8788 126.514 13.5852 126.139 13.1875C125.768 12.786 125.582 12.2841 125.582 11.6818C125.582 11.1894 125.721 10.7538 125.997 10.375C126.277 9.99621 126.658 9.69886 127.139 9.48295C127.624 9.26705 128.173 9.15909 128.787 9.15909C129.651 9.15909 130.329 9.34848 130.821 9.72727C131.317 10.1061 131.67 10.6061 131.878 11.2273ZM140.237 11.2273L139.033 11.5682C138.957 11.3674 138.845 11.1723 138.697 10.983C138.554 10.7898 138.357 10.6307 138.107 10.5057C137.857 10.3807 137.536 10.3182 137.146 10.3182C136.612 10.3182 136.167 10.4413 135.811 10.6875C135.459 10.9299 135.283 11.2386 135.283 11.6136C135.283 11.947 135.404 12.2102 135.646 12.4034C135.889 12.5966 136.268 12.7576 136.783 12.8864L138.078 13.2045C138.858 13.3939 139.44 13.6837 139.822 14.0739C140.205 14.4602 140.396 14.9583 140.396 15.5682C140.396 16.0682 140.252 16.5152 139.964 16.9091C139.68 17.303 139.283 17.6136 138.771 17.8409C138.26 18.0682 137.665 18.1818 136.987 18.1818C136.097 18.1818 135.36 17.9886 134.777 17.6023C134.194 17.2159 133.824 16.6515 133.669 15.9091L134.942 15.5909C135.063 16.0606 135.292 16.4129 135.629 16.6477C135.97 16.8826 136.415 17 136.964 17C137.589 17 138.086 16.8674 138.453 16.6023C138.824 16.3333 139.01 16.0114 139.01 15.6364C139.01 15.3333 138.904 15.0795 138.692 14.875C138.48 14.6667 138.154 14.5114 137.714 14.4091L136.26 14.0682C135.461 13.8788 134.874 13.5852 134.499 13.1875C134.127 12.786 133.942 12.2841 133.942 11.6818C133.942 11.1894 134.08 10.7538 134.357 10.375C134.637 9.99621 135.018 9.69886 135.499 9.48295C135.983 9.26705 136.533 9.15909 137.146 9.15909C138.01 9.15909 138.688 9.34848 139.18 9.72727C139.677 10.1061 140.029 10.6061 140.237 11.2273Z" fill="white"/>
<defs>
<linearGradient id="paint0_linear_53_115" x1="0" y1="13" x2="314" y2="13" gradientUnits="userSpaceOnUse">
<stop stop-color="white"/>
<stop offset="1" stop-color="#999999"/>
</linearGradient>
</defs>
</svg>
