<svg width="118" height="38" viewBox="0 0 118 38" fill="none" xmlns="http://www.w3.org/2000/svg">
<g clip-path="url(#clip0_35_219)">
<g clip-path="url(#clip1_35_219)">
<path d="M19 3.5C15.8355 3.5 12.7421 4.43838 10.1109 6.19649C7.4797 7.95459 5.42894 10.4534 4.21793 13.3771C3.00693 16.3007 2.69008 19.5177 3.30744 22.6214C3.92481 25.7251 5.44866 28.5761 7.6863 30.8137C9.92394 33.0513 12.7749 34.5752 15.8786 35.1926C18.9823 35.8099 22.1993 35.4931 25.1229 34.2821C28.0466 33.0711 30.5454 31.0203 32.3035 28.3891C34.0616 25.7579 35 22.6645 35 19.5C35 15.2565 33.3143 11.1869 30.3137 8.18629C27.3131 5.18571 23.2435 3.5 19 3.5ZM25.2 24.68C25.1274 24.7899 25.0337 24.8844 24.9244 24.958C24.8151 25.0316 24.6924 25.0829 24.5632 25.1089C24.434 25.135 24.301 25.1352 24.1717 25.1096C24.0425 25.0841 23.9195 25.0332 23.81 24.96L17.91 20.96V12.25C17.91 11.9848 18.0154 11.7304 18.2029 11.5429C18.3904 11.3554 18.6448 11.25 18.91 11.25C19.1752 11.25 19.4296 11.3554 19.6171 11.5429C19.8047 11.7304 19.91 11.9848 19.91 12.25V19.9L24.91 23.29C25.0207 23.3619 25.1161 23.4549 25.1907 23.5639C25.2653 23.6728 25.3176 23.7954 25.3445 23.9246C25.3715 24.0538 25.3726 24.1871 25.3478 24.3167C25.323 24.4464 25.2728 24.5699 25.2 24.68ZM24.85 9.73C23.443 8.88191 21.8691 8.34825 20.2364 8.16561C18.6038 7.98298 16.9509 8.1557 15.3912 8.67193C13.8316 9.18815 12.4021 10.0357 11.2007 11.1563C9.99943 12.277 9.05476 13.6442 8.43155 15.1643C7.80835 16.6844 7.52135 18.3213 7.59025 19.9627C7.65915 21.6041 8.08232 23.2112 8.83072 24.6737C9.57913 26.1362 10.6351 27.4195 11.9261 28.4355C13.2171 29.4516 14.7126 30.1763 16.31 30.56L16 32.13C14.168 31.7036 12.4503 30.8847 10.9655 29.7298C9.48075 28.5749 8.2643 27.1116 7.40014 25.4408C6.53597 23.77 6.04468 21.9316 5.96018 20.0525C5.87567 18.1734 6.19997 16.2983 6.91067 14.5567C7.62138 12.8151 8.70156 11.2485 10.0767 9.96496C11.4518 8.68147 13.089 7.71167 14.8754 7.12253C16.6618 6.53339 18.5547 6.33892 20.4236 6.55257C22.2924 6.76622 24.0927 7.38289 25.7 8.36L24.85 9.73Z" fill="#B6EC0E"/>
</g>
</g>
<rect x="0.5" y="1" width="37" height="36" rx="18" stroke="#B4E705"/>
<path d="M53.5795 4.71023V3.77273H60.125V4.71023H57.3807V12.5H56.3239V4.71023H53.5795ZM61.0374 14.9545C60.8669 14.9545 60.715 14.9403 60.5814 14.9119C60.4479 14.8864 60.3556 14.8608 60.3044 14.8352L60.5601 13.9489C60.8044 14.0114 61.0204 14.0341 61.2079 14.017C61.3954 14 61.5615 13.9162 61.7064 13.7656C61.8542 13.6179 61.9891 13.3778 62.1113 13.0455L62.2988 12.5341L59.8783 5.95455H60.9692L62.776 11.1705H62.8442L64.651 5.95455H65.7419L62.9635 13.4545C62.8385 13.7926 62.6837 14.0724 62.499 14.294C62.3144 14.5185 62.0999 14.6847 61.8556 14.7926C61.6141 14.9006 61.3414 14.9545 61.0374 14.9545ZM66.5894 14.9545V5.95455H67.561V6.99432H67.6803C67.7541 6.88068 67.8564 6.7358 67.9871 6.55966C68.1206 6.38068 68.311 6.22159 68.5581 6.08239C68.8081 5.94034 69.1462 5.86932 69.5723 5.86932C70.1235 5.86932 70.6092 6.0071 71.0297 6.28267C71.4502 6.55824 71.7783 6.94886 72.0141 7.45455C72.2499 7.96023 72.3678 8.55682 72.3678 9.24432C72.3678 9.9375 72.2499 10.5384 72.0141 11.0469C71.7783 11.5526 71.4516 11.9446 71.034 12.223C70.6163 12.4986 70.1348 12.6364 69.5894 12.6364C69.1689 12.6364 68.8323 12.5668 68.5794 12.4276C68.3266 12.2855 68.132 12.125 67.9956 11.946C67.8592 11.7642 67.7541 11.6136 67.6803 11.4943H67.595V14.9545H66.5894ZM67.578 9.22727C67.578 9.72159 67.6504 10.1577 67.7953 10.5355C67.9402 10.9105 68.1519 11.2045 68.4303 11.4176C68.7087 11.6278 69.0496 11.733 69.453 11.733C69.8735 11.733 70.2243 11.6222 70.5056 11.4006C70.7896 11.1761 71.0027 10.875 71.1448 10.4972C71.2896 10.1165 71.3621 9.69318 71.3621 9.22727C71.3621 8.76705 71.2911 8.35227 71.149 7.98295C71.0098 7.6108 70.7982 7.31676 70.5141 7.10085C70.2328 6.8821 69.8791 6.77273 69.453 6.77273C69.0439 6.77273 68.7002 6.87642 68.4217 7.08381C68.1433 7.28835 67.9331 7.57528 67.7911 7.9446C67.649 8.31108 67.578 8.73864 67.578 9.22727ZM73.4219 12.5V5.95455H74.4275V12.5H73.4219ZM73.9332 4.86364C73.7372 4.86364 73.5682 4.79688 73.4261 4.66335C73.2869 4.52983 73.2173 4.36932 73.2173 4.18182C73.2173 3.99432 73.2869 3.83381 73.4261 3.70028C73.5682 3.56676 73.7372 3.5 73.9332 3.5C74.1292 3.5 74.2969 3.56676 74.4361 3.70028C74.5781 3.83381 74.6491 3.99432 74.6491 4.18182C74.6491 4.36932 74.5781 4.52983 74.4361 4.66335C74.2969 4.79688 74.1292 4.86364 73.9332 4.86364ZM76.7952 8.5625V12.5H75.7895V5.95455H76.7611V6.97727H76.8463C76.9997 6.64489 77.2327 6.37784 77.5452 6.17614C77.8577 5.97159 78.2611 5.86932 78.7554 5.86932C79.1986 5.86932 79.5864 5.96023 79.9188 6.14205C80.2512 6.32102 80.5097 6.59375 80.6943 6.96023C80.879 7.32386 80.9713 7.78409 80.9713 8.34091V12.5H79.9657V8.40909C79.9657 7.89489 79.8321 7.49432 79.5651 7.20739C79.298 6.91761 78.9316 6.77273 78.4657 6.77273C78.1446 6.77273 77.8577 6.84233 77.6049 6.98153C77.3549 7.12074 77.1574 7.32386 77.0125 7.59091C76.8676 7.85795 76.7952 8.18182 76.7952 8.5625ZM84.9711 15.0909C84.4853 15.0909 84.0677 15.0284 83.7183 14.9034C83.3688 14.7812 83.0776 14.6193 82.8447 14.4176C82.6146 14.2188 82.4313 14.0057 82.295 13.7784L83.0961 13.2159C83.187 13.3352 83.3021 13.4716 83.4413 13.625C83.5805 13.7812 83.7708 13.9162 84.0123 14.0298C84.2566 14.1463 84.5762 14.2045 84.9711 14.2045C85.4995 14.2045 85.9356 14.0767 86.2793 13.821C86.6231 13.5653 86.795 13.1648 86.795 12.6193V11.2898H86.7097C86.6359 11.4091 86.5308 11.5568 86.3944 11.733C86.2609 11.9062 86.0677 12.0611 85.8148 12.1974C85.5648 12.331 85.2268 12.3977 84.8006 12.3977C84.2722 12.3977 83.7978 12.2727 83.3773 12.0227C82.9597 11.7727 82.6288 11.4091 82.3844 10.9318C82.143 10.4545 82.0222 9.875 82.0222 9.19318C82.0222 8.52273 82.1401 7.93892 82.3759 7.44176C82.6117 6.94176 82.9398 6.5554 83.3603 6.28267C83.7808 6.0071 84.2665 5.86932 84.8177 5.86932C85.2438 5.86932 85.5819 5.94034 85.8319 6.08239C86.0847 6.22159 86.2779 6.38068 86.4114 6.55966C86.5478 6.7358 86.6529 6.88068 86.7268 6.99432H86.829V5.95455H87.8006V12.6875C87.8006 13.25 87.6728 13.7074 87.4171 14.0597C87.1643 14.4148 86.8234 14.6747 86.3944 14.8395C85.9683 15.0071 85.4938 15.0909 84.9711 15.0909ZM84.937 11.4943C85.3404 11.4943 85.6813 11.402 85.9597 11.2173C86.2381 11.0327 86.4498 10.767 86.5947 10.4205C86.7396 10.0739 86.812 9.65909 86.812 9.17614C86.812 8.70455 86.741 8.28835 86.5989 7.92756C86.4569 7.56676 86.2467 7.28409 85.9683 7.07955C85.6898 6.875 85.3461 6.77273 84.937 6.77273C84.5109 6.77273 84.1558 6.88068 83.8717 7.09659C83.5904 7.3125 83.3788 7.60227 83.2367 7.96591C83.0975 8.32955 83.0279 8.73295 83.0279 9.17614C83.0279 9.63068 83.0989 10.0327 83.241 10.3821C83.3859 10.7287 83.5989 11.0014 83.8802 11.2003C84.1643 11.3963 84.5165 11.4943 84.937 11.4943ZM91.7156 4.71023V3.77273H98.2611V4.71023H95.5168V12.5H94.46V4.71023H91.7156ZM99.2758 12.5V5.95455H100.281V12.5H99.2758ZM99.7871 4.86364C99.5911 4.86364 99.4221 4.79688 99.28 4.66335C99.1408 4.52983 99.0712 4.36932 99.0712 4.18182C99.0712 3.99432 99.1408 3.83381 99.28 3.70028C99.4221 3.56676 99.5911 3.5 99.7871 3.5C99.9832 3.5 100.151 3.56676 100.29 3.70028C100.432 3.83381 100.503 3.99432 100.503 4.18182C100.503 4.36932 100.432 4.52983 100.29 4.66335C100.151 4.79688 99.9832 4.86364 99.7871 4.86364ZM101.643 12.5V5.95455H102.615V6.97727H102.7C102.837 6.62784 103.057 6.35653 103.361 6.16335C103.665 5.96733 104.03 5.86932 104.456 5.86932C104.888 5.86932 105.247 5.96733 105.534 6.16335C105.824 6.35653 106.05 6.62784 106.212 6.97727H106.28C106.447 6.6392 106.699 6.37074 107.034 6.17188C107.369 5.97017 107.771 5.86932 108.24 5.86932C108.825 5.86932 109.304 6.05256 109.676 6.41903C110.048 6.78267 110.234 7.34943 110.234 8.11932V12.5H109.229V8.11932C109.229 7.63636 109.097 7.29119 108.832 7.08381C108.568 6.87642 108.257 6.77273 107.899 6.77273C107.439 6.77273 107.082 6.91193 106.83 7.19034C106.577 7.46591 106.45 7.81534 106.45 8.23864V12.5H105.428V8.01705C105.428 7.64489 105.307 7.34517 105.065 7.1179C104.824 6.88778 104.513 6.77273 104.132 6.77273C103.871 6.77273 103.626 6.84233 103.399 6.98153C103.175 7.12074 102.993 7.31392 102.854 7.56108C102.717 7.8054 102.649 8.08807 102.649 8.40909V12.5H101.643ZM114.337 12.6364C113.707 12.6364 113.163 12.4972 112.705 12.2188C112.251 11.9375 111.9 11.5455 111.653 11.0426C111.408 10.5369 111.286 9.94886 111.286 9.27841C111.286 8.60795 111.408 8.01705 111.653 7.50568C111.9 6.99148 112.244 6.59091 112.684 6.30398C113.127 6.0142 113.644 5.86932 114.235 5.86932C114.576 5.86932 114.913 5.92614 115.245 6.03977C115.577 6.15341 115.88 6.33807 116.153 6.59375C116.425 6.84659 116.643 7.18182 116.805 7.59943C116.967 8.01705 117.048 8.53125 117.048 9.14205V9.56818H112.002V8.69886H116.025C116.025 8.32955 115.951 8 115.803 7.71023C115.658 7.42045 115.451 7.19176 115.181 7.02415C114.914 6.85653 114.599 6.77273 114.235 6.77273C113.835 6.77273 113.488 6.87216 113.195 7.07102C112.906 7.26705 112.683 7.52273 112.526 7.83807C112.37 8.15341 112.292 8.49148 112.292 8.85227V9.43182C112.292 9.92614 112.377 10.3452 112.548 10.6889C112.721 11.0298 112.961 11.2898 113.268 11.4688C113.575 11.6449 113.931 11.733 114.337 11.733C114.602 11.733 114.84 11.696 115.053 11.6222C115.269 11.5455 115.455 11.4318 115.612 11.2812C115.768 11.1278 115.889 10.9375 115.974 10.7102L116.945 10.983C116.843 11.3125 116.671 11.6023 116.43 11.8523C116.188 12.0994 115.89 12.2926 115.535 12.4318C115.18 12.5682 114.781 12.6364 114.337 12.6364Z" fill="#F7F7F7"/>
<path d="M58 33.6591C57.1439 33.6591 56.4148 33.4261 55.8125 32.9602C55.2102 32.4905 54.75 31.8106 54.4318 30.9205C54.1136 30.0265 53.9545 28.947 53.9545 27.6818C53.9545 26.4242 54.1136 25.3504 54.4318 24.4602C54.7538 23.5663 55.2159 22.8845 55.8182 22.4148C56.4242 21.9413 57.1515 21.7045 58 21.7045C58.8485 21.7045 59.5739 21.9413 60.1761 22.4148C60.7822 22.8845 61.2443 23.5663 61.5625 24.4602C61.8845 25.3504 62.0455 26.4242 62.0455 27.6818C62.0455 28.947 61.8864 30.0265 61.5682 30.9205C61.25 31.8106 60.7898 32.4905 60.1875 32.9602C59.5852 33.4261 58.8561 33.6591 58 33.6591ZM58 32.4091C58.8485 32.4091 59.5076 32 59.9773 31.1818C60.447 30.3636 60.6818 29.197 60.6818 27.6818C60.6818 26.6742 60.5739 25.8163 60.358 25.108C60.1458 24.3996 59.839 23.8598 59.4375 23.4886C59.0398 23.1174 58.5606 22.9318 58 22.9318C57.1591 22.9318 56.5019 23.3466 56.0284 24.1761C55.5549 25.0019 55.3182 26.1705 55.3182 27.6818C55.3182 28.6894 55.4242 29.5455 55.6364 30.25C55.8485 30.9545 56.1534 31.4905 56.5511 31.858C56.9527 32.2254 57.4356 32.4091 58 32.4091ZM64.2045 33.5V32.4773L68.0455 28.2727C68.4962 27.7803 68.8674 27.3523 69.1591 26.9886C69.4508 26.6212 69.6667 26.2765 69.8068 25.9545C69.9508 25.6288 70.0227 25.2879 70.0227 24.9318C70.0227 24.5227 69.9242 24.1686 69.7273 23.8693C69.5341 23.5701 69.2689 23.339 68.9318 23.1761C68.5947 23.0133 68.2159 22.9318 67.7955 22.9318C67.3485 22.9318 66.9583 23.0246 66.625 23.2102C66.2955 23.392 66.0398 23.6477 65.858 23.9773C65.6799 24.3068 65.5909 24.6932 65.5909 25.1364H64.25C64.25 24.4545 64.4072 23.8561 64.7216 23.3409C65.036 22.8258 65.464 22.4242 66.0057 22.1364C66.5511 21.8485 67.1629 21.7045 67.8409 21.7045C68.5227 21.7045 69.1269 21.8485 69.6534 22.1364C70.1799 22.4242 70.5928 22.8125 70.892 23.3011C71.1913 23.7898 71.3409 24.3333 71.3409 24.9318C71.3409 25.3598 71.2633 25.7784 71.108 26.1875C70.9564 26.5928 70.6913 27.0455 70.3125 27.5455C69.9375 28.0417 69.4167 28.6477 68.75 29.3636L66.1364 32.1591V32.25H71.5455V33.5H64.2045ZM74.892 32.0114C74.6117 32.0114 74.3712 31.911 74.1705 31.7102C73.9697 31.5095 73.8693 31.2689 73.8693 30.9886C73.8693 30.7083 73.9697 30.4678 74.1705 30.267C74.3712 30.0663 74.6117 29.9659 74.892 29.9659C75.1723 29.9659 75.4129 30.0663 75.6136 30.267C75.8144 30.4678 75.9148 30.7083 75.9148 30.9886C75.9148 31.1742 75.8674 31.3447 75.7727 31.5C75.6818 31.6553 75.5587 31.7803 75.4034 31.875C75.2519 31.9659 75.0814 32.0114 74.892 32.0114ZM74.892 26.125C74.6117 26.125 74.3712 26.0246 74.1705 25.8239C73.9697 25.6231 73.8693 25.3826 73.8693 25.1023C73.8693 24.822 73.9697 24.5814 74.1705 24.3807C74.3712 24.1799 74.6117 24.0795 74.892 24.0795C75.1723 24.0795 75.4129 24.1799 75.6136 24.3807C75.8144 24.5814 75.9148 24.822 75.9148 25.1023C75.9148 25.2879 75.8674 25.4583 75.7727 25.6136C75.6818 25.7689 75.5587 25.8939 75.4034 25.9886C75.2519 26.0795 75.0814 26.125 74.892 26.125ZM78.2983 33.5V32.4773L82.1392 28.2727C82.59 27.7803 82.9612 27.3523 83.2528 26.9886C83.5445 26.6212 83.7604 26.2765 83.9006 25.9545C84.0445 25.6288 84.1165 25.2879 84.1165 24.9318C84.1165 24.5227 84.018 24.1686 83.821 23.8693C83.6278 23.5701 83.3627 23.339 83.0256 23.1761C82.6884 23.0133 82.3097 22.9318 81.8892 22.9318C81.4422 22.9318 81.0521 23.0246 80.7188 23.2102C80.3892 23.392 80.1335 23.6477 79.9517 23.9773C79.7737 24.3068 79.6847 24.6932 79.6847 25.1364H78.3438C78.3438 24.4545 78.5009 23.8561 78.8153 23.3409C79.1297 22.8258 79.5578 22.4242 80.0994 22.1364C80.6449 21.8485 81.2566 21.7045 81.9347 21.7045C82.6165 21.7045 83.2206 21.8485 83.7472 22.1364C84.2737 22.4242 84.6866 22.8125 84.9858 23.3011C85.285 23.7898 85.4347 24.3333 85.4347 24.9318C85.4347 25.3598 85.357 25.7784 85.2017 26.1875C85.0502 26.5928 84.785 27.0455 84.4062 27.5455C84.0312 28.0417 83.5104 28.6477 82.8438 29.3636L80.2301 32.1591V32.25H85.6392V33.5H78.2983ZM91.8494 33.6591C91.3722 33.6515 90.8949 33.5606 90.4176 33.3864C89.9403 33.2121 89.5047 32.9186 89.1108 32.5057C88.7169 32.089 88.4006 31.5265 88.1619 30.8182C87.9233 30.1061 87.804 29.2121 87.804 28.1364C87.804 27.1061 87.9006 26.1932 88.0938 25.3977C88.2869 24.5985 88.5672 23.9261 88.9347 23.3807C89.3021 22.8314 89.7453 22.4148 90.2642 22.1307C90.7869 21.8466 91.3759 21.7045 92.0312 21.7045C92.6828 21.7045 93.2623 21.8352 93.7699 22.0966C94.2813 22.3542 94.6979 22.714 95.0199 23.1761C95.3419 23.6383 95.5502 24.1705 95.6449 24.7727H94.2585C94.1297 24.25 93.8797 23.8163 93.5085 23.4716C93.1373 23.1269 92.6449 22.9545 92.0312 22.9545C91.1297 22.9545 90.4195 23.3466 89.9006 24.1307C89.3854 24.9148 89.1259 26.0152 89.1222 27.4318H89.2131C89.4252 27.1098 89.6771 26.8352 89.9688 26.608C90.2642 26.3769 90.59 26.1989 90.946 26.0739C91.3021 25.9489 91.679 25.8864 92.0767 25.8864C92.7434 25.8864 93.3532 26.053 93.9062 26.3864C94.4593 26.7159 94.9025 27.1723 95.2358 27.7557C95.5691 28.3352 95.7358 29 95.7358 29.75C95.7358 30.4697 95.5748 31.1288 95.2528 31.7273C94.9309 32.322 94.4782 32.7955 93.8949 33.1477C93.3153 33.4962 92.6335 33.6667 91.8494 33.6591ZM91.8494 32.4091C92.3267 32.4091 92.7547 32.2898 93.1335 32.0511C93.5161 31.8125 93.8172 31.4924 94.0369 31.0909C94.2604 30.6894 94.3722 30.2424 94.3722 29.75C94.3722 29.2689 94.2642 28.8314 94.0483 28.4375C93.8362 28.0398 93.5426 27.7235 93.1676 27.4886C92.7964 27.2538 92.3722 27.1364 91.8949 27.1364C91.535 27.1364 91.1998 27.2083 90.8892 27.3523C90.5786 27.4924 90.3059 27.6856 90.071 27.9318C89.84 28.178 89.6581 28.4602 89.5256 28.7784C89.393 29.0928 89.3267 29.4242 89.3267 29.7727C89.3267 30.2348 89.4347 30.6667 89.6506 31.0682C89.8703 31.4697 90.1695 31.7936 90.5483 32.0398C90.9309 32.286 91.3646 32.4091 91.8494 32.4091Z" fill="#F7F7F7"/>
<defs>
<clipPath id="clip0_35_219">
<rect y="0.5" width="38" height="37" rx="18.5" fill="white"/>
</clipPath>
<clipPath id="clip1_35_219">
<rect width="36" height="36" fill="white" transform="translate(1 1.5)"/>
</clipPath>
</defs>
</svg>
