<svg width="326" height="50" viewBox="0 0 326 50" fill="none" xmlns="http://www.w3.org/2000/svg">
<path d="M35.3271 9.33789H21.3379V38H14.9902V9.33789H0.976562V2.99023H35.3271V9.33789ZM67.1387 40.5391C67.1387 41.6296 67.0003 42.6061 66.7236 43.4688C66.4469 44.3477 66.0807 45.1126 65.625 45.7637C65.1693 46.431 64.6403 46.9925 64.0381 47.4482C63.4359 47.9202 62.8011 48.3027 62.1338 48.5957C61.4827 48.8887 60.8236 49.1003 60.1562 49.2305C59.4889 49.377 58.8542 49.4502 58.252 49.4502H46.8018V43.1025H58.252C59.0983 43.1025 59.7331 42.8828 60.1562 42.4434C60.5794 42.0039 60.791 41.3691 60.791 40.5391V11.6084H67.1387V40.5391ZM58.252 38H46.8018C45.8903 38 44.9137 37.8454 43.8721 37.5361C42.8467 37.2269 41.8864 36.7223 40.9912 36.0225C40.096 35.3063 39.3555 34.3867 38.7695 33.2637C38.1836 32.1243 37.8906 30.7327 37.8906 29.0889V11.6084H44.2383V29.0889C44.2383 29.9189 44.458 30.5537 44.8975 30.9932C45.3369 31.4326 45.988 31.6523 46.8506 31.6523H58.252V38ZM102.295 29.0889C102.295 30.1794 102.157 31.1641 101.88 32.043C101.603 32.9056 101.237 33.6706 100.781 34.3379C100.326 34.9889 99.7965 35.5505 99.1943 36.0225C98.5921 36.4782 97.9574 36.8525 97.29 37.1455C96.639 37.4385 95.9798 37.6582 95.3125 37.8047C94.6452 37.9349 94.0104 38 93.4082 38H81.958V31.6523H93.4082C94.2546 31.6523 94.8893 31.4326 95.3125 30.9932C95.7357 30.5537 95.9473 29.9189 95.9473 29.0889V20.5439C95.9473 19.665 95.7275 19.014 95.2881 18.5908C94.8649 18.1676 94.2383 17.9561 93.4082 17.9561H82.0068C81.1442 17.9561 80.4932 18.1758 80.0537 18.6152C79.6143 19.0384 79.3945 19.665 79.3945 20.4951V46.252H73.0469V20.4951C73.0469 19.4046 73.1852 18.4281 73.4619 17.5654C73.7386 16.7028 74.1048 15.946 74.5605 15.2949C75.0326 14.6276 75.5697 14.0661 76.1719 13.6104C76.7741 13.1383 77.4007 12.7559 78.0518 12.4629C78.7191 12.1699 79.3864 11.9583 80.0537 11.8281C80.7373 11.6816 81.3721 11.6084 81.958 11.6084H93.4082C94.4987 11.6084 95.4753 11.7467 96.3379 12.0234C97.2005 12.3001 97.9574 12.6663 98.6084 13.1221C99.2757 13.5778 99.8372 14.1068 100.293 14.709C100.765 15.3112 101.147 15.946 101.44 16.6133C101.733 17.2643 101.945 17.9235 102.075 18.5908C102.222 19.2581 102.295 19.8929 102.295 20.4951V29.0889ZM114.16 6.18848H107.812V0.451172H114.16V6.18848ZM114.16 38H107.812V11.6084H114.16V38ZM149.512 38H143.164V23.3516C143.164 22.5215 143.018 21.7809 142.725 21.1299C142.448 20.4626 142.065 19.8929 141.577 19.4209C141.089 18.9489 140.511 18.5908 139.844 18.3467C139.193 18.0863 138.485 17.9561 137.72 17.9561H126.611V38H120.264V14.7578C120.264 14.3184 120.345 13.9115 120.508 13.5371C120.671 13.1465 120.898 12.8128 121.191 12.5361C121.484 12.2432 121.826 12.0153 122.217 11.8525C122.607 11.6898 123.022 11.6084 123.462 11.6084H137.769C138.566 11.6084 139.404 11.6979 140.283 11.877C141.178 12.056 142.057 12.349 142.92 12.7559C143.799 13.1465 144.629 13.651 145.41 14.2695C146.208 14.8717 146.908 15.6123 147.51 16.4912C148.128 17.3538 148.617 18.3548 148.975 19.4941C149.333 20.6335 149.512 21.9193 149.512 23.3516V38ZM183.789 40.5391C183.789 41.6296 183.651 42.6061 183.374 43.4688C183.097 44.3477 182.731 45.1126 182.275 45.7637C181.82 46.431 181.291 46.9925 180.688 47.4482C180.086 47.9202 179.451 48.3027 178.784 48.5957C178.133 48.8887 177.466 49.1003 176.782 49.2305C176.115 49.377 175.48 49.4502 174.878 49.4502H163.428V43.1025H174.878C175.741 43.1025 176.383 42.8828 176.807 42.4434C177.23 42.0039 177.441 41.3691 177.441 40.5391V20.4951C177.441 19.665 177.23 19.0384 176.807 18.6152C176.383 18.1758 175.741 17.9561 174.878 17.9561H163.428C162.646 17.9561 162.028 18.2002 161.572 18.6885C161.117 19.1605 160.889 19.7627 160.889 20.4951V29.0889C160.889 29.9189 161.108 30.5537 161.548 30.9932C161.987 31.4326 162.63 31.6523 163.477 31.6523H174.878V38H163.428C162.826 38 162.191 37.9349 161.523 37.8047C160.856 37.6582 160.189 37.4385 159.521 37.1455C158.87 36.8525 158.244 36.4782 157.642 36.0225C157.039 35.5505 156.51 34.9889 156.055 34.3379C155.599 33.6706 155.233 32.9056 154.956 32.043C154.679 31.1641 154.541 30.1794 154.541 29.0889V20.4951C154.541 19.8929 154.606 19.2581 154.736 18.5908C154.883 17.9235 155.103 17.2643 155.396 16.6133C155.688 15.946 156.063 15.3112 156.519 14.709C156.991 14.1068 157.552 13.5778 158.203 13.1221C158.87 12.6663 159.635 12.3001 160.498 12.0234C161.361 11.7467 162.337 11.6084 163.428 11.6084H174.878C175.48 11.6084 176.115 11.6816 176.782 11.8281C177.466 11.9583 178.133 12.1699 178.784 12.4629C179.451 12.7559 180.086 13.1383 180.688 13.6104C181.291 14.0661 181.82 14.6276 182.275 15.2949C182.731 15.946 183.097 16.7028 183.374 17.5654C183.651 18.4281 183.789 19.4046 183.789 20.4951V40.5391ZM237.671 9.33789H223.682V38H217.334V9.33789H203.32V2.99023H237.671V9.33789ZM267.261 20.3486C267.261 21.2275 267.106 22.1797 266.797 23.2051C266.488 24.2142 265.983 25.1582 265.283 26.0371C264.6 26.8997 263.696 27.624 262.573 28.21C261.466 28.7959 260.116 29.0889 258.521 29.0889H247.07V23.0586H258.521C259.383 23.0586 260.05 22.7982 260.522 22.2773C260.994 21.7402 261.23 21.0811 261.23 20.2998C261.23 19.4697 260.962 18.8187 260.425 18.3467C259.904 17.8747 259.269 17.6387 258.521 17.6387H247.07C246.208 17.6387 245.54 17.9072 245.068 18.4443C244.596 18.9652 244.36 19.6162 244.36 20.3975V29.2598C244.36 30.1061 244.621 30.7653 245.142 31.2373C245.679 31.7093 246.338 31.9453 247.119 31.9453H258.521V38H247.07C246.191 38 245.239 37.8454 244.214 37.5361C243.205 37.2269 242.261 36.7305 241.382 36.0469C240.519 35.347 239.795 34.4437 239.209 33.3369C238.623 32.2139 238.33 30.8548 238.33 29.2598V20.3486C238.33 19.4697 238.485 18.5257 238.794 17.5166C239.103 16.4912 239.6 15.5472 240.283 14.6846C240.983 13.8057 241.886 13.0732 242.993 12.4873C244.116 11.9014 245.475 11.6084 247.07 11.6084H258.521C259.399 11.6084 260.343 11.763 261.353 12.0723C262.378 12.3815 263.322 12.8861 264.185 13.5859C265.063 14.2695 265.796 15.1729 266.382 16.2959C266.968 17.4027 267.261 18.7536 267.261 20.3486ZM297.046 29.0889C297.046 30.1794 296.908 31.1641 296.631 32.043C296.354 32.9056 295.988 33.6706 295.532 34.3379C295.076 34.9889 294.548 35.5505 293.945 36.0225C293.343 36.4782 292.708 36.8525 292.041 37.1455C291.39 37.4385 290.723 37.6582 290.039 37.8047C289.372 37.9349 288.737 38 288.135 38H270.947V31.6523H288.086C288.949 31.6523 289.6 31.4326 290.039 30.9932C290.479 30.5537 290.698 29.9189 290.698 29.0889C290.617 27.3962 289.762 26.5498 288.135 26.5498H278.296C276.896 26.5498 275.708 26.3057 274.731 25.8174C273.755 25.3291 272.957 24.7188 272.339 23.9863C271.737 23.2539 271.297 22.4645 271.021 21.6182C270.76 20.7718 270.63 19.9824 270.63 19.25C270.63 17.834 270.882 16.6458 271.387 15.6855C271.891 14.709 272.526 13.9196 273.291 13.3174C274.056 12.7152 274.886 12.2839 275.781 12.0234C276.676 11.7467 277.515 11.6084 278.296 11.6084H293.896V17.9561H278.345C278.019 17.9561 277.759 17.9967 277.563 18.0781C277.384 18.1432 277.246 18.2409 277.148 18.3711C277.067 18.485 277.018 18.6152 277.002 18.7617C276.986 18.8919 276.978 19.0221 276.978 19.1523C276.994 19.4128 277.043 19.6162 277.124 19.7627C277.205 19.9092 277.303 20.015 277.417 20.0801C277.547 20.1452 277.686 20.1859 277.832 20.2021C277.995 20.2021 278.149 20.2021 278.296 20.2021H288.135C289.762 20.2021 291.146 20.4951 292.285 21.0811C293.424 21.667 294.344 22.4076 295.044 23.3027C295.744 24.1816 296.248 25.1419 296.558 26.1836C296.883 27.2253 297.046 28.1937 297.046 29.0889ZM325.073 17.9561H313.989V38H307.568V17.9561H299.316V11.6084H307.568V2.99023H313.989V11.6084H325.073V17.9561Z" fill="white"/>
</svg>
