<svg width="307" height="278" viewBox="0 0 307 278" fill="none" xmlns="http://www.w3.org/2000/svg">
<rect opacity="0.5" x="8.79456" width="5.43567" height="248.682" rx="2.71783" fill="#D7DDFF"/>
<rect opacity="0.5" x="103.239" width="5.43567" height="248.682" rx="2.71783" fill="#D7DDFF"/>
<rect opacity="0.5" x="198.363" width="5.43567" height="248.682" rx="2.71783" fill="#D7DDFF"/>
<rect opacity="0.5" x="293.488" width="5.43567" height="248.682" rx="2.71783" fill="#D7DDFF"/>
<rect opacity="0.5" x="55.6772" width="5.43567" height="248.682" rx="2.71783" fill="#D7DDFF"/>
<rect opacity="0.5" x="150.801" width="5.43567" height="248.682" rx="2.71783" fill="#D7DDFF"/>
<rect opacity="0.5" x="245.926" width="5.43567" height="248.682" rx="2.71783" fill="#D7DDFF"/>
<rect x="8.11499" y="180.736" width="6.79458" height="67.9458" rx="3.39729" fill="#53DEFB"/>
<rect x="102.56" y="104.636" width="6.79458" height="144.045" rx="3.39729" fill="#53DEFB"/>
<rect x="197.684" y="84.9321" width="6.79458" height="163.749" rx="3.39729" fill="#53DEFB"/>
<rect x="292.808" y="151.519" width="6.79458" height="97.1625" rx="3.39729" fill="#53DEFB"/>
<rect x="54.9976" y="151.519" width="6.79458" height="97.1625" rx="3.39729" fill="#53DEFB"/>
<rect x="150.122" y="183.454" width="6.79458" height="65.228" rx="3.39729" fill="#53DEFB"/>
<rect x="245.246" y="46.8826" width="6.79458" height="201.799" rx="3.39729" fill="#53DEFB"/>
<path d="M0.337092 277V268.545H1.85467L4.591 275.295H4.62615L7.36834 268.545H8.88006V277H7.68475V270.76H7.64373L5.0949 277H4.12225L1.57342 270.76H1.5324V277H0.337092ZM12.9347 277.123C11.1652 277.123 10.0109 275.898 10.0109 273.918V273.906C10.0109 271.938 11.1769 270.719 12.9289 270.719C14.6867 270.719 15.8586 271.932 15.8586 273.906V273.918C15.8586 275.904 14.6984 277.123 12.9347 277.123ZM12.9406 276.062C13.9308 276.062 14.5637 275.277 14.5637 273.918V273.906C14.5637 272.559 13.9191 271.779 12.9289 271.779C11.9562 271.779 11.3058 272.559 11.3058 273.906V273.918C11.3058 275.283 11.9504 276.062 12.9406 276.062ZM16.8371 277V270.836H18.1027V271.768H18.132C18.4543 271.141 19.0871 270.719 20.0187 270.719C21.3723 270.719 22.1515 271.592 22.1515 273.01V277H20.8801V273.25C20.8801 272.324 20.4465 271.803 19.5676 271.803C18.6769 271.803 18.1027 272.447 18.1027 273.408V277H16.8371Z" fill="#4CE0FC"/>
<path d="M196.029 277V268.545H201.308V269.676H197.341V272.354H200.974V273.461H197.341V277H196.029ZM202.298 277V270.836H203.564V271.891H203.593C203.792 271.17 204.308 270.719 205.011 270.719C205.193 270.719 205.351 270.748 205.45 270.766V271.943C205.351 271.902 205.128 271.873 204.882 271.873C204.068 271.873 203.564 272.406 203.564 273.326V277H202.298ZM206.921 269.887C206.511 269.887 206.183 269.559 206.183 269.16C206.183 268.756 206.511 268.428 206.921 268.428C207.337 268.428 207.659 268.756 207.659 269.16C207.659 269.559 207.337 269.887 206.921 269.887ZM206.288 277V270.836H207.554V277H206.288Z" fill="#4CE0FC"/>
<path d="M52.522 277V269.676H49.9321V268.545H56.4185V269.676H53.8345V277H52.522ZM58.3111 277.123C56.9575 277.123 56.1841 276.25 56.1841 274.832V270.836H57.4497V274.586C57.4497 275.518 57.8833 276.033 58.7622 276.033C59.6529 276.033 60.2271 275.395 60.2271 274.434V270.836H61.4986V277H60.2271V276.074H60.1978C59.8755 276.695 59.2486 277.123 58.3111 277.123ZM65.3833 277.123C63.5728 277.123 62.4771 275.887 62.4771 273.941V273.936C62.4771 272.008 63.5903 270.719 65.3189 270.719C67.0474 270.719 68.1079 271.961 68.1079 273.812V274.24H63.7427C63.7661 275.406 64.4048 276.086 65.4126 276.086C66.1626 276.086 66.6607 275.699 66.8189 275.236L66.8364 275.189H68.0376L68.0259 275.254C67.8267 276.232 66.8775 277.123 65.3833 277.123ZM65.3247 271.756C64.5044 271.756 63.8716 272.312 63.7603 273.344H66.854C66.7486 272.277 66.1509 271.756 65.3247 271.756Z" fill="#4CE0FC"/>
<path d="M96.9262 277L94.6469 268.545H96.0121L97.5883 275.172H97.6118L99.3989 268.545H100.641L102.428 275.172H102.457L104.034 268.545H105.399L103.114 277H101.854L100.038 270.625H100.008L98.186 277H96.9262ZM108.252 277.123C106.442 277.123 105.346 275.887 105.346 273.941V273.936C105.346 272.008 106.459 270.719 108.188 270.719C109.916 270.719 110.977 271.961 110.977 273.812V274.24H106.612C106.635 275.406 107.274 276.086 108.282 276.086C109.032 276.086 109.53 275.699 109.688 275.236L109.706 275.189H110.907L110.895 275.254C110.696 276.232 109.747 277.123 108.252 277.123ZM108.194 271.756C107.373 271.756 106.741 272.312 106.629 273.344H109.723C109.618 272.277 109.02 271.756 108.194 271.756ZM114.264 277.123C112.694 277.123 111.686 275.881 111.686 273.918V273.912C111.686 271.949 112.706 270.719 114.252 270.719C115.125 270.719 115.829 271.158 116.198 271.885H116.221V268.545H117.493V277H116.221V275.957H116.198C115.829 276.678 115.149 277.123 114.264 277.123ZM114.598 276.033C115.553 276.033 116.227 275.201 116.227 273.918V273.912C116.227 272.635 115.547 271.803 114.598 271.803C113.602 271.803 112.981 272.611 112.981 273.912V273.918C112.981 275.23 113.596 276.033 114.598 276.033Z" fill="#4CE0FC"/>
<path d="M243.942 277.141C242.044 277.141 240.79 276.238 240.684 274.75L240.679 274.662H241.956L241.968 274.738C242.085 275.518 242.864 276.004 243.995 276.004C245.126 276.004 245.841 275.494 245.841 274.703V274.697C245.841 274.018 245.378 273.648 244.259 273.402L243.339 273.209C241.681 272.857 240.878 272.096 240.878 270.842V270.836C240.884 269.395 242.155 268.404 243.942 268.404C245.706 268.404 246.913 269.365 247.001 270.783L247.007 270.883H245.729L245.724 270.801C245.606 270.016 244.927 269.541 243.925 269.541C242.876 269.547 242.208 270.045 242.208 270.783V270.789C242.208 271.422 242.688 271.809 243.743 272.037L244.669 272.23C246.415 272.6 247.165 273.309 247.165 274.615V274.621C247.165 276.162 245.946 277.141 243.942 277.141ZM250.007 277.111C248.776 277.111 247.95 276.355 247.95 275.248V275.236C247.95 274.164 248.782 273.508 250.241 273.42L251.917 273.32V272.857C251.917 272.178 251.477 271.768 250.692 271.768C249.96 271.768 249.509 272.113 249.403 272.605L249.391 272.658H248.196L248.202 272.594C248.29 271.533 249.21 270.719 250.727 270.719C252.233 270.719 253.188 271.516 253.188 272.752V277H251.917V276.027H251.893C251.536 276.689 250.821 277.111 250.007 277.111ZM249.227 275.219C249.227 275.758 249.673 276.098 250.352 276.098C251.243 276.098 251.917 275.494 251.917 274.691V274.211L250.411 274.305C249.649 274.352 249.227 274.686 249.227 275.207V275.219ZM256.581 277.123C255.362 277.123 254.776 276.607 254.776 275.377V271.844H253.891V270.836H254.776V269.23H256.071V270.836H257.225V271.844H256.071V275.301C256.071 275.928 256.352 276.115 256.886 276.115C257.02 276.115 257.132 276.104 257.225 276.092V277.07C257.079 277.094 256.839 277.123 256.581 277.123Z" fill="#4CE0FC"/>
<path d="M146.92 277V269.676H144.33V268.545H150.816V269.676H148.232V277H146.92ZM151.783 277V268.545H153.049V271.85H153.078C153.406 271.135 154.068 270.719 154.988 270.719C156.306 270.719 157.174 271.703 157.174 273.191V277H155.908V273.432C155.908 272.412 155.392 271.803 154.502 271.803C153.629 271.803 153.049 272.471 153.049 273.432V277H151.783ZM160.502 277.123C159.148 277.123 158.375 276.25 158.375 274.832V270.836H159.64V274.586C159.64 275.518 160.074 276.033 160.953 276.033C161.844 276.033 162.418 275.395 162.418 274.434V270.836H163.689V277H162.418V276.074H162.388C162.066 276.695 161.439 277.123 160.502 277.123Z" fill="#4CE0FC"/>
<path d="M290.344 277.141C288.446 277.141 287.192 276.238 287.086 274.75L287.081 274.662H288.358L288.37 274.738C288.487 275.518 289.266 276.004 290.397 276.004C291.528 276.004 292.243 275.494 292.243 274.703V274.697C292.243 274.018 291.78 273.648 290.661 273.402L289.741 273.209C288.083 272.857 287.28 272.096 287.28 270.842V270.836C287.286 269.395 288.557 268.404 290.344 268.404C292.108 268.404 293.315 269.365 293.403 270.783L293.409 270.883H292.131L292.126 270.801C292.008 270.016 291.329 269.541 290.327 269.541C289.278 269.547 288.61 270.045 288.61 270.783V270.789C288.61 271.422 289.09 271.809 290.145 272.037L291.071 272.23C292.817 272.6 293.567 273.309 293.567 274.615V274.621C293.567 276.162 292.348 277.141 290.344 277.141ZM296.696 277.123C295.342 277.123 294.569 276.25 294.569 274.832V270.836H295.835V274.586C295.835 275.518 296.268 276.033 297.147 276.033C298.038 276.033 298.612 275.395 298.612 274.434V270.836H299.883V277H298.612V276.074H298.583C298.26 276.695 297.633 277.123 296.696 277.123ZM301.137 277V270.836H302.403V271.768H302.432C302.754 271.141 303.387 270.719 304.319 270.719C305.672 270.719 306.452 271.592 306.452 273.01V277H305.18V273.25C305.18 272.324 304.747 271.803 303.868 271.803C302.977 271.803 302.403 272.447 302.403 273.408V277H301.137Z" fill="#4CE0FC"/>
</svg>
